<svg width="72" height="73" viewBox="0 0 72 73" fill="none" xmlns="http://www.w3.org/2000/svg">
<g id="icon/72x72/cart">
<g id="icon">
<path id="Oval" fill-rule="evenodd" clip-rule="evenodd" d="M19.999 64.803C22.2082 64.803 23.999 63.0121 23.999 60.803C23.999 58.5938 22.2082 56.803 19.999 56.803C17.7899 56.803 15.999 58.5938 15.999 60.803C15.999 63.0121 17.7899 64.803 19.999 64.803Z" stroke="#52AE30" stroke-width="2" stroke-linecap="round" stroke-linejoin="round"/>
<path id="Oval_2" fill-rule="evenodd" clip-rule="evenodd" d="M49.999 64.803C52.2082 64.803 53.999 63.0121 53.999 60.803C53.999 58.5938 52.2082 56.803 49.999 56.803C47.7899 56.803 45.999 58.5938 45.999 60.803C45.999 63.0121 47.7899 64.803 49.999 64.803Z" stroke="#52AE30" stroke-width="2" stroke-linecap="round" stroke-linejoin="round"/>
<path id="Shape" d="M67.999 9.80298H64.1644C62.2963 9.80298 60.677 11.096 60.2636 12.9177L50.3038 56.803H19.999" stroke="#52AE30" stroke-width="2" stroke-linecap="round" stroke-linejoin="round"/>
<path id="Shape_2" opacity="0.3" fill-rule="evenodd" clip-rule="evenodd" d="M54.1237 52.2433C53.9179 53.1553 53.1077 53.803 52.1728 53.803H23.5186C21.7903 53.803 20.2574 52.6929 19.7182 51.0509L13.172 31.115C12.9597 30.4683 13.4414 29.803 14.1221 29.803H56.6867C57.9689 29.803 58.9199 30.9925 58.6376 32.2433L54.1237 52.2433Z" fill="#52AE30"/>
<path id="Shape Copy 5" d="M51.5192 50.803H19.1362C17.8438 50.803 16.6966 49.9753 16.2892 48.7487L10.3098 30.7487C9.66464 28.8067 11.1104 26.803 13.1568 26.803H56.999" stroke="#52AE30" stroke-width="2" stroke-linecap="round" stroke-linejoin="round"/>
<path id="Shape_3" d="M34.999 26.803L43.7817 17.9347C44.9476 16.7574 46.8472 16.7482 48.0244 17.9142L56.999 26.803" stroke="#52AE30" stroke-width="2" stroke-linecap="round" stroke-linejoin="round"/>
<path id="Shape_4" d="M21.999 26.803L14.6515 9.7405C14.1981 8.68755 12.9542 8.23047 11.9269 8.73934L8.70649 10.3345C7.75041 10.8081 7.33442 11.9488 7.7612 12.9267L13.8172 26.803" stroke="#52AE30" stroke-width="2" stroke-linecap="round" stroke-linejoin="round"/>
<path id="Shape_5" d="M30.999 26.803V21.803C30.999 20.1461 32.3422 18.803 33.999 18.803H42.999" stroke="#52AE30" stroke-width="2" stroke-linecap="round" stroke-linejoin="round"/>
<path id="Path 5" opacity="0.5" d="M9 22.803V22.803C6.07856 24.5558 4.76654 28.1026 5.84391 31.3347L9 40.803" stroke="#52AE30" stroke-width="2" stroke-linecap="round" stroke-linejoin="round"/>
<path id="Path 5 Copy" opacity="0.5" d="M10.999 45.803L11.999 48.803" stroke="#52AE30" stroke-width="2" stroke-linecap="round" stroke-linejoin="round"/>
</g>
</g>
</svg>
