<svg width="72" height="73" viewBox="0 0 72 73" fill="none" xmlns="http://www.w3.org/2000/svg">
<g id="icon/72x72/percent">
<g id="icon">
<path id="Oval 4" fill-rule="evenodd" clip-rule="evenodd" d="M37.4277 64.8975C52.0633 64.8975 63.9277 53.033 63.9277 38.3975C63.9277 23.7619 52.0633 11.8975 37.4277 11.8975C22.7922 11.8975 10.9277 23.7619 10.9277 38.3975C10.9277 53.033 22.7922 64.8975 37.4277 64.8975Z" stroke="#52AE30" stroke-width="2"/>
<path id="Path" opacity="0.5" d="M37.9277 6.89746C35.876 6.89746 33.8701 7.10285 31.9277 7.49507" stroke="#52AE30" stroke-width="2" stroke-linecap="round"/>
<path id="Path_2" opacity="0.5" d="M23.9277 9.89746C13.2832 15.0604 5.92773 26.1054 5.92773 38.8975" stroke="#52AE30" stroke-width="2" stroke-linecap="round"/>
<path id="Shape" d="M23.9277 51.8975L50.9277 24.8975" stroke="#52AE30" stroke-width="2" stroke-linecap="round" stroke-linejoin="round"/>
<path id="Subtract" opacity="0.3" fill-rule="evenodd" clip-rule="evenodd" d="M40.4277 67.8975C55.0633 67.8975 66.9277 56.033 66.9277 41.3975C66.9277 26.7619 55.0633 14.8975 40.4277 14.8975C25.7922 14.8975 13.9277 26.7619 13.9277 41.3975C13.9277 56.033 25.7922 67.8975 40.4277 67.8975ZM28.9277 33.8975C31.1369 33.8975 32.9277 32.1066 32.9277 29.8975C32.9277 27.6883 31.1369 25.8975 28.9277 25.8975C26.7186 25.8975 24.9277 27.6883 24.9277 29.8975C24.9277 32.1066 26.7186 33.8975 28.9277 33.8975ZM49.9277 46.8975C49.9277 49.1066 48.1369 50.8975 45.9277 50.8975C43.7186 50.8975 41.9277 49.1066 41.9277 46.8975C41.9277 44.6883 43.7186 42.8975 45.9277 42.8975C48.1369 42.8975 49.9277 44.6883 49.9277 46.8975Z" fill="#52AE30"/>
<path id="Oval" fill-rule="evenodd" clip-rule="evenodd" d="M28.9277 33.8975C31.1369 33.8975 32.9277 32.1066 32.9277 29.8975C32.9277 27.6883 31.1369 25.8975 28.9277 25.8975C26.7186 25.8975 24.9277 27.6883 24.9277 29.8975C24.9277 32.1066 26.7186 33.8975 28.9277 33.8975Z" stroke="#52AE30" stroke-width="2" stroke-linecap="round" stroke-linejoin="round"/>
<path id="Oval_2" fill-rule="evenodd" clip-rule="evenodd" d="M45.9277 50.8975C48.1369 50.8975 49.9277 49.1066 49.9277 46.8975C49.9277 44.6883 48.1369 42.8975 45.9277 42.8975C43.7186 42.8975 41.9277 44.6883 41.9277 46.8975C41.9277 49.1066 43.7186 50.8975 45.9277 50.8975Z" stroke="#52AE30" stroke-width="2" stroke-linecap="round" stroke-linejoin="round"/>
</g>
</g>
</svg>
