<svg width="72" height="73" viewBox="0 0 72 73" fill="none" xmlns="http://www.w3.org/2000/svg">
<g id="icon/72x72/activating">
<g id="icon">
<path id="Shape" d="M65 20.803H38" stroke="#52AE30" stroke-width="2" stroke-linecap="round" stroke-linejoin="round"/>
<path id="Shape Copy" d="M20 18.498V14.553C20 12.483 21.68 10.803 23.75 10.803H61.25C63.32 10.803 65 12.483 65 14.553V37.053C65 39.1255 63.32 40.803 61.25 40.803H23.75C21.68 40.803 20 39.1255 20 37.053V35.803" stroke="#52AE30" stroke-width="2" stroke-linecap="round" stroke-linejoin="round"/>
<path id="Shape_2" d="M60 24.803H52" stroke="#52AE30" stroke-width="2" stroke-linecap="round" stroke-linejoin="round"/>
<g id="Group 3">
<path id="Path" opacity="0.5" d="M37 60.803H35" stroke="#52AE30" stroke-width="2" stroke-linecap="round" stroke-linejoin="round"/>
<path id="Path_2" opacity="0.5" d="M31 60.803H21.9446C13.1368 60.803 6 53.6414 6 44.803" stroke="#52AE30" stroke-width="2" stroke-linecap="round" stroke-linejoin="round"/>
<path id="Subtract" opacity="0.3" fill-rule="evenodd" clip-rule="evenodd" d="M23 15.803C23 14.6984 23.8954 13.803 25 13.803H64.2357C66.3136 13.803 68 15.4968 68 17.5839V37.803C68 41.1167 65.3137 43.803 62 43.803H50.9079C50.5248 42.0862 48.9923 40.803 47.16 40.803H23.126C23.0438 40.4834 23 40.1483 23 39.803V35.1654C26.04 32.8485 27.5819 27.6696 27.5819 27.6696H32.6052C35.1169 27.6696 37.6286 26.403 37.6286 23.8696V22.603C37.6286 20.0696 35.0466 18.803 32.6052 18.803H25.0702C24.4477 18.803 23.7481 18.8419 23 18.9373V15.803ZM53 24.803C52.4477 24.803 52 25.2507 52 25.803C52 26.3553 52.4477 26.803 53 26.803H61C61.5523 26.803 62 26.3553 62 25.803C62 25.2507 61.5523 24.803 61 24.803H53Z" fill="#52AE30"/>
<path id="Shape Copy 2.1" fill-rule="evenodd" clip-rule="evenodd" d="M20 37.803C20 39.4598 21.3431 40.803 23 40.803H47.16C49.2808 40.803 51 42.5222 51 44.6429V44.6429C51 46.7637 49.2808 48.4829 47.16 48.4829H35.8556H31.8171H37.9134C40.1225 48.4829 41.9134 50.2738 41.9134 52.4829V52.803C41.9134 55.0121 40.1225 56.803 37.9134 56.803H22.5585C15.6212 56.803 10 51.1334 10 44.1363V35.6902C10 21.3363 20.0468 18.803 25.0702 18.803C27.4839 18.803 31.0053 18.803 32.6052 18.803C35.0466 18.803 37.6286 20.0696 37.6286 22.603V23.8696C37.6286 26.403 35.1169 27.803 32.6052 27.803H27.5819C27.5819 27.803 25.0234 35.803 20 35.803V37.803Z" stroke="#52AE30" stroke-width="2" stroke-linecap="round" stroke-linejoin="round"/>
</g>
</g>
</g>
</svg>
