<svg width="63" height="63" viewBox="0 0 63 63" fill="none" xmlns="http://www.w3.org/2000/svg">
<path fill-rule="evenodd" clip-rule="evenodd" d="M33.4277 59.7314C48.0633 59.7314 59.9277 47.867 59.9277 33.2314C59.9277 18.5959 48.0633 6.73145 33.4277 6.73145C18.7922 6.73145 6.92773 18.5959 6.92773 33.2314C6.92773 47.867 18.7922 59.7314 33.4277 59.7314Z" stroke="#52AE30" stroke-width="2"/>
<path opacity="0.5" d="M33.9277 1.73145C31.876 1.73145 29.8701 1.93683 27.9277 2.32905" stroke="#52AE30" stroke-width="2" stroke-linecap="round"/>
<path opacity="0.5" d="M19.9277 4.73145C9.28316 9.89441 1.92773 20.9394 1.92773 33.7314" stroke="#52AE30" stroke-width="2" stroke-linecap="round"/>
<path d="M19.9277 46.7314L46.9277 19.7314" stroke="#52AE30" stroke-width="2" stroke-linecap="round" stroke-linejoin="round"/>
<path opacity="0.3" fill-rule="evenodd" clip-rule="evenodd" d="M36.4277 62.7314C51.0633 62.7314 62.9277 50.867 62.9277 36.2314C62.9277 21.5959 51.0633 9.73145 36.4277 9.73145C21.7922 9.73145 9.92773 21.5959 9.92773 36.2314C9.92773 50.867 21.7922 62.7314 36.4277 62.7314ZM24.9277 28.7314C27.1369 28.7314 28.9277 26.9406 28.9277 24.7314C28.9277 22.5223 27.1369 20.7314 24.9277 20.7314C22.7186 20.7314 20.9277 22.5223 20.9277 24.7314C20.9277 26.9406 22.7186 28.7314 24.9277 28.7314ZM45.9277 41.7314C45.9277 43.9406 44.1369 45.7314 41.9277 45.7314C39.7186 45.7314 37.9277 43.9406 37.9277 41.7314C37.9277 39.5223 39.7186 37.7314 41.9277 37.7314C44.1369 37.7314 45.9277 39.5223 45.9277 41.7314Z" fill="#52AE30"/>
<path fill-rule="evenodd" clip-rule="evenodd" d="M24.9277 28.7314C27.1369 28.7314 28.9277 26.9406 28.9277 24.7314C28.9277 22.5223 27.1369 20.7314 24.9277 20.7314C22.7186 20.7314 20.9277 22.5223 20.9277 24.7314C20.9277 26.9406 22.7186 28.7314 24.9277 28.7314Z" stroke="#52AE30" stroke-width="2" stroke-linecap="round" stroke-linejoin="round"/>
<path fill-rule="evenodd" clip-rule="evenodd" d="M41.9277 45.7314C44.1369 45.7314 45.9277 43.9406 45.9277 41.7314C45.9277 39.5223 44.1369 37.7314 41.9277 37.7314C39.7186 37.7314 37.9277 39.5223 37.9277 41.7314C37.9277 43.9406 39.7186 45.7314 41.9277 45.7314Z" stroke="#52AE30" stroke-width="2" stroke-linecap="round" stroke-linejoin="round"/>
</svg>
