<svg width="12" height="20" viewBox="0 0 12 20" fill="none" xmlns="http://www.w3.org/2000/svg">
<path fill-rule="evenodd" clip-rule="evenodd" d="M11.2 5.09802C11.2 7.91361 8.8719 10.1961 6.00003 10.1961C3.12963 10.1926 0.803574 7.91218 0.800049 5.09806C0.800049 2.28247 3.12813 0 6.00003 0C8.87193 0 11.2 2.28243 11.2 5.09802ZM8.80023 5.09807C8.80023 3.58197 7.54661 2.35297 6.00023 2.35297C4.45385 2.35297 3.20023 3.58197 3.20023 5.09807C3.20023 6.61417 4.45381 7.84317 6.00023 7.84317C7.54665 7.84317 8.80023 6.61417 8.80023 5.09807Z" fill="#1B1F27"/>
<path fill-rule="evenodd" clip-rule="evenodd" d="M11.0935 13.4016C11.6586 13.0245 11.9991 12.3851 11.9999 11.6995C12.0077 11.1305 11.6908 10.6081 11.1863 10.3581C10.6679 10.0958 10.0473 10.1549 9.5863 10.5105C7.44948 12.0888 4.55128 12.0888 2.41446 10.5105C1.9527 10.1567 1.33325 10.0977 0.814484 10.3581C0.310157 10.608 -0.00689837 11.1299 0.000113976 11.6987C0.00131395 12.3842 0.341694 13.0233 0.906507 13.4008C1.63114 13.889 2.42027 14.271 3.25047 14.5355C3.39128 14.5798 3.53659 14.6209 3.68647 14.6587L1.26894 17.0537C0.63475 17.6772 0.619413 18.7034 1.23474 19.346C1.85006 19.9885 2.86295 20.004 3.49718 19.3806C3.51038 19.3676 3.52335 19.3544 3.5361 19.341L6.00006 16.7571L8.46882 19.3458C9.08362 19.9889 10.0965 20.0052 10.7312 19.3823C11.3659 18.7594 11.382 17.7332 10.7672 17.0901C10.7544 17.0767 10.7413 17.0635 10.728 17.0505L8.3144 14.6579C8.46424 14.619 8.61012 14.5776 8.75198 14.5339C9.58127 14.2704 10.3697 13.8892 11.0935 13.4016Z" fill="#1B1F27"/>
</svg>
