<svg width="107" height="32" viewBox="0 0 107 32" fill="none" xmlns="http://www.w3.org/2000/svg">
<path d="M103.193 31.5H3.74817C1.96308 31.5 0.5 30.0265 0.5 28.2136V3.7808C0.5 1.96809 1.96206 0.5 3.74817 0.5H103.193C104.989 0.5 106.5 1.97822 106.5 3.7808V28.2136C106.5 30.0164 104.988 31.5 103.193 31.5Z" stroke="#1B1F27"/>
<path d="M30.7084 15.684C30.6854 13.1459 32.7951 11.9111 32.8916 11.8536C31.6968 10.1187 29.8449 9.88171 29.1941 9.86281C27.6387 9.6998 26.13 10.7897 25.3376 10.7897C24.5295 10.7897 23.3094 9.87856 21.9944 9.90534C20.3022 9.93132 18.7191 10.907 17.8509 12.4222C16.0591 15.5115 17.3954 20.0515 19.1121 22.5486C19.9709 23.7716 20.9743 25.1372 22.2878 25.0891C23.5727 25.0364 24.0527 24.2733 25.6033 24.2733C27.1397 24.2733 27.5905 25.0891 28.93 25.0584C30.309 25.0364 31.1773 23.8299 32.006 22.5959C32.9983 21.1941 33.3969 19.8137 33.4127 19.7428C33.3803 19.7318 30.7345 18.7261 30.7084 15.684Z" fill="#1B1F27"/>
<path d="M28.178 8.22009C28.8691 7.35935 29.342 6.18834 29.2107 5C28.2104 5.0441 26.9595 5.68906 26.2391 6.5309C25.6018 7.27272 25.0325 8.48862 25.1795 9.63207C26.3032 9.71555 27.4569 9.06744 28.178 8.22009Z" fill="#1B1F27"/>
<path d="M39.885 17.04L39.693 17.76H41.361L41.181 17.04C41.069 16.648 40.961 16.232 40.857 15.792C40.753 15.352 40.649 14.928 40.545 14.52H40.497C40.401 14.936 40.301 15.364 40.197 15.804C40.101 16.236 39.997 16.648 39.885 17.04ZM37.053 21L39.501 13.176H41.625L44.073 21H42.201L41.721 19.14H39.333L38.853 21H37.053ZM44.7839 23.208V15.048H46.2239L46.3439 15.636H46.3919C46.6239 15.428 46.8839 15.256 47.1719 15.12C47.4679 14.976 47.7719 14.904 48.0839 14.904C48.4439 14.904 48.7679 14.976 49.0559 15.12C49.3439 15.264 49.5879 15.468 49.7879 15.732C49.9879 15.996 50.1399 16.316 50.2439 16.692C50.3559 17.06 50.4119 17.472 50.4119 17.928C50.4119 18.44 50.3399 18.896 50.1959 19.296C50.0599 19.688 49.8719 20.024 49.6319 20.304C49.3999 20.576 49.1319 20.784 48.8279 20.928C48.5319 21.072 48.2239 21.144 47.9039 21.144C47.6479 21.144 47.3999 21.092 47.1599 20.988C46.9199 20.876 46.6959 20.72 46.4879 20.52L46.5479 21.468V23.208H44.7839ZM47.4959 19.704C47.7999 19.704 48.0599 19.568 48.2759 19.296C48.4919 19.016 48.5999 18.568 48.5999 17.952C48.5999 16.88 48.2559 16.344 47.5679 16.344C47.2239 16.344 46.8839 16.524 46.5479 16.884V19.32C46.7079 19.464 46.8679 19.564 47.0279 19.62C47.1879 19.676 47.3439 19.704 47.4959 19.704ZM51.6628 23.208V15.048H53.1028L53.2228 15.636H53.2708C53.5028 15.428 53.7628 15.256 54.0508 15.12C54.3468 14.976 54.6508 14.904 54.9628 14.904C55.3228 14.904 55.6468 14.976 55.9348 15.12C56.2228 15.264 56.4668 15.468 56.6668 15.732C56.8668 15.996 57.0188 16.316 57.1228 16.692C57.2348 17.06 57.2908 17.472 57.2908 17.928C57.2908 18.44 57.2188 18.896 57.0748 19.296C56.9388 19.688 56.7508 20.024 56.5108 20.304C56.2788 20.576 56.0108 20.784 55.7068 20.928C55.4108 21.072 55.1028 21.144 54.7828 21.144C54.5268 21.144 54.2788 21.092 54.0388 20.988C53.7988 20.876 53.5748 20.72 53.3668 20.52L53.4268 21.468V23.208H51.6628ZM54.3748 19.704C54.6788 19.704 54.9388 19.568 55.1548 19.296C55.3708 19.016 55.4788 18.568 55.4788 17.952C55.4788 16.88 55.1348 16.344 54.4468 16.344C54.1028 16.344 53.7628 16.524 53.4268 16.884V19.32C53.5868 19.464 53.7468 19.564 53.9068 19.62C54.0668 19.676 54.2228 19.704 54.3748 19.704ZM63.4761 21.144C62.9641 21.144 62.4521 21.052 61.9401 20.868C61.4361 20.676 60.9841 20.392 60.5841 20.016L61.5921 18.804C61.8721 19.044 62.1801 19.24 62.5161 19.392C62.8601 19.544 63.1961 19.62 63.5241 19.62C63.8921 19.62 64.1641 19.552 64.3401 19.416C64.5241 19.28 64.6161 19.096 64.6161 18.864C64.6161 18.744 64.5881 18.64 64.5321 18.552C64.4841 18.464 64.4081 18.388 64.3041 18.324C64.2081 18.252 64.0881 18.188 63.9441 18.132C63.8081 18.068 63.6561 18 63.4881 17.928L62.4681 17.496C62.2681 17.416 62.0721 17.312 61.8801 17.184C61.6961 17.056 61.5281 16.908 61.3761 16.74C61.2321 16.564 61.1161 16.364 61.0281 16.14C60.9401 15.908 60.8961 15.648 60.8961 15.36C60.8961 15.04 60.9641 14.74 61.1001 14.46C61.2361 14.172 61.4281 13.924 61.6761 13.716C61.9241 13.5 62.2161 13.332 62.5521 13.212C62.8961 13.092 63.2721 13.032 63.6801 13.032C64.1361 13.032 64.5841 13.12 65.0241 13.296C65.4721 13.472 65.8641 13.728 66.2001 14.064L65.3001 15.18C65.0441 14.98 64.7881 14.828 64.5321 14.724C64.2761 14.612 63.9921 14.556 63.6801 14.556C63.3761 14.556 63.1321 14.62 62.9481 14.748C62.7721 14.868 62.6841 15.04 62.6841 15.264C62.6841 15.384 62.7121 15.488 62.7681 15.576C62.8321 15.656 62.9161 15.732 63.0201 15.804C63.1321 15.868 63.2601 15.932 63.4041 15.996C63.5481 16.052 63.7041 16.116 63.8721 16.188L64.8801 16.596C65.3601 16.788 65.7361 17.052 66.0081 17.388C66.2881 17.724 66.4281 18.168 66.4281 18.72C66.4281 19.048 66.3601 19.36 66.2241 19.656C66.0961 19.944 65.9041 20.2 65.6481 20.424C65.4001 20.64 65.0921 20.816 64.7241 20.952C64.3561 21.08 63.9401 21.144 63.4761 21.144ZM69.5642 21.144C69.1962 21.144 68.8802 21.088 68.6162 20.976C68.3602 20.864 68.1482 20.708 67.9802 20.508C67.8202 20.308 67.7002 20.068 67.6202 19.788C67.5482 19.5 67.5122 19.184 67.5122 18.84V16.428H66.6962V15.12L67.6082 15.048L67.8122 13.464H69.2762V15.048H70.7042V16.428H69.2762V18.816C69.2762 19.152 69.3442 19.396 69.4802 19.548C69.6242 19.692 69.8122 19.764 70.0442 19.764C70.1402 19.764 70.2362 19.752 70.3322 19.728C70.4362 19.704 70.5282 19.676 70.6082 19.644L70.8842 20.928C70.7242 20.976 70.5362 21.024 70.3202 21.072C70.1042 21.12 69.8522 21.144 69.5642 21.144ZM74.211 21.144C73.835 21.144 73.471 21.076 73.119 20.94C72.767 20.796 72.455 20.592 72.183 20.328C71.919 20.064 71.707 19.74 71.547 19.356C71.387 18.964 71.307 18.52 71.307 18.024C71.307 17.528 71.387 17.088 71.547 16.704C71.707 16.312 71.919 15.984 72.183 15.72C72.455 15.456 72.767 15.256 73.119 15.12C73.471 14.976 73.835 14.904 74.211 14.904C74.587 14.904 74.947 14.976 75.291 15.12C75.643 15.256 75.951 15.456 76.215 15.72C76.487 15.984 76.703 16.312 76.863 16.704C77.023 17.088 77.103 17.528 77.103 18.024C77.103 18.52 77.023 18.964 76.863 19.356C76.703 19.74 76.487 20.064 76.215 20.328C75.951 20.592 75.643 20.796 75.291 20.94C74.947 21.076 74.587 21.144 74.211 21.144ZM74.211 19.716C74.571 19.716 74.843 19.564 75.027 19.26C75.211 18.956 75.303 18.544 75.303 18.024C75.303 17.504 75.211 17.092 75.027 16.788C74.843 16.484 74.571 16.332 74.211 16.332C73.843 16.332 73.567 16.484 73.383 16.788C73.207 17.092 73.119 17.504 73.119 18.024C73.119 18.544 73.207 18.956 73.383 19.26C73.567 19.564 73.843 19.716 74.211 19.716ZM78.3113 21V15.048H79.7513L79.8713 16.092H79.9193C80.1353 15.684 80.3953 15.384 80.6992 15.192C81.0033 15 81.3073 14.904 81.6113 14.904C81.7793 14.904 81.9153 14.916 82.0193 14.94C82.1313 14.956 82.2313 14.984 82.3193 15.024L82.0313 16.548C81.9193 16.516 81.8153 16.492 81.7193 16.476C81.6233 16.46 81.5113 16.452 81.3833 16.452C81.1593 16.452 80.9233 16.532 80.6753 16.692C80.4353 16.852 80.2353 17.136 80.0753 17.544V21H78.3113ZM85.6393 21.144C85.2153 21.144 84.8193 21.076 84.4513 20.94C84.0833 20.796 83.7633 20.592 83.4913 20.328C83.2193 20.056 83.0073 19.728 82.8553 19.344C82.7033 18.96 82.6273 18.52 82.6273 18.024C82.6273 17.544 82.7073 17.112 82.8673 16.728C83.0273 16.336 83.2353 16.008 83.4913 15.744C83.7553 15.472 84.0553 15.264 84.3913 15.12C84.7273 14.976 85.0753 14.904 85.4353 14.904C85.8593 14.904 86.2273 14.976 86.5393 15.12C86.8593 15.264 87.1233 15.464 87.3313 15.72C87.5473 15.976 87.7073 16.28 87.8113 16.632C87.9153 16.976 87.9673 17.352 87.9673 17.76C87.9673 17.92 87.9593 18.072 87.9433 18.216C87.9273 18.36 87.9113 18.468 87.8953 18.54H84.3313C84.4113 18.972 84.5873 19.292 84.8593 19.5C85.1393 19.7 85.4793 19.8 85.8793 19.8C86.3033 19.8 86.7313 19.668 87.1633 19.404L87.7513 20.472C87.4473 20.68 87.1073 20.844 86.7313 20.964C86.3633 21.084 85.9993 21.144 85.6393 21.144ZM84.3193 17.376H86.4673C86.4673 17.04 86.3913 16.768 86.2393 16.56C86.0873 16.352 85.8313 16.248 85.4713 16.248C85.1913 16.248 84.9433 16.34 84.7273 16.524C84.5193 16.708 84.3833 16.992 84.3193 17.376Z" fill="#1B1F27"/>
</svg>
