<svg width="19" height="19" viewBox="0 0 19 19" fill="none" xmlns="http://www.w3.org/2000/svg">
<path d="M16.431 0H2.55896C1.14571 0 0 1.14567 0 2.55896V16.4311C0 17.8444 1.14567 18.9901 2.55896 18.9901H9.40059L9.41225 12.204H7.64924C7.42013 12.204 7.23417 12.0188 7.23329 11.7897L7.22483 9.60225C7.22395 9.37188 7.41046 9.18466 7.64083 9.18466H9.40063V7.07107C9.40063 4.61825 10.8987 3.28268 13.0867 3.28268H14.8822C15.1119 3.28268 15.2982 3.46892 15.2982 3.69868V5.54312C15.2982 5.77279 15.1121 5.95899 14.8824 5.95912L13.7806 5.95964C12.5906 5.95964 12.3602 6.52508 12.3602 7.3549V9.18471H14.9749C15.2241 9.18471 15.4174 9.40226 15.388 9.64968L15.1287 11.8371C15.1039 12.0464 14.9264 12.2041 14.7157 12.2041H12.3719L12.3602 18.9902H16.4311C17.8443 18.9902 18.99 17.8445 18.99 16.4312V2.55896C18.99 1.14567 17.8443 0 16.431 0Z" fill="#1B1F27"/>
</svg>
