<svg width="29" height="18" viewBox="0 0 29 18" fill="none" xmlns="http://www.w3.org/2000/svg">
<path d="M24.91 11.416C25.8701 12.4427 26.8834 13.4087 27.7445 14.5389C28.1249 15.0412 28.485 15.5595 28.7605 16.1424C29.1509 16.971 28.7973 17.8829 28.119 17.9323L23.9024 17.9302C22.8149 18.029 21.9473 17.5495 21.2179 16.735C20.6341 16.0837 20.0934 15.3905 19.5321 14.7172C19.3019 14.442 19.0611 14.1831 18.7733 13.9784C18.1977 13.5692 17.6981 13.6944 17.3691 14.352C17.0341 15.0209 16.9581 15.7614 16.9252 16.5068C16.88 17.5944 16.5799 17.8803 15.5825 17.9301C13.4511 18.0402 11.4282 17.687 9.54896 16.5092C7.89217 15.471 6.60747 14.0051 5.48919 12.3458C3.31204 9.11462 1.64468 5.56403 0.146177 1.914C-0.191139 1.09164 0.0555586 0.65022 0.883952 0.634555C2.2595 0.605267 3.63488 0.607372 5.01207 0.632449C5.57116 0.641428 5.94126 0.992635 6.15715 1.57115C6.90137 3.57555 7.81201 5.48254 8.95505 7.25016C9.25947 7.72075 9.56988 8.1914 10.0118 8.5226C10.5008 8.88935 10.8731 8.76781 11.1031 8.17115C11.2491 7.79282 11.313 7.38533 11.3459 6.98019C11.4549 5.58619 11.4693 4.19455 11.2782 2.80545C11.1608 1.93852 10.715 1.37728 9.92523 1.21325C9.52222 1.1296 9.5822 0.965329 9.77734 0.713378C10.1162 0.278827 10.435 0.00830078 11.0705 0.00830078H15.8359C16.5861 0.170468 16.7527 0.539632 16.8554 1.36644L16.8594 7.1644C16.8513 7.48446 17.0054 8.43437 17.5318 8.64619C17.953 8.79703 18.2307 8.42787 18.4835 8.1353C19.6245 6.80892 20.4388 5.24137 21.1663 3.61821C21.4891 2.90446 21.7667 2.16329 22.0358 1.42267C22.2351 0.87313 22.5479 0.602728 23.113 0.614678L27.6994 0.619137C27.8354 0.619137 27.973 0.621304 28.1047 0.64601C28.8775 0.790282 29.0894 1.15443 28.8506 1.98106C28.4745 3.27796 27.7428 4.35876 27.0273 5.44452C26.2624 6.60372 25.4444 7.72328 24.6859 8.88935C23.989 9.95437 24.0443 10.4911 24.91 11.416Z" fill="#1B1F27"/>
</svg>
