<svg width="107" height="32" viewBox="0 0 107 32" fill="none" xmlns="http://www.w3.org/2000/svg">
<path d="M103.193 31.5H3.74817C1.96308 31.5 0.5 30.0265 0.5 28.2136V3.7808C0.5 1.96809 1.96206 0.5 3.74817 0.5H103.193C104.989 0.5 106.5 1.97822 106.5 3.7808V28.2136C106.5 30.0164 104.988 31.5 103.193 31.5Z" stroke="#1B1F27"/>
<path fill-rule="evenodd" clip-rule="evenodd" d="M23.0718 11.9554L12.2862 6.36681C11.687 6.05653 11.1255 5.95 10.6468 6.02118L19.9479 14.9555L23.0718 11.9554ZM9 8.66174C9 8.03338 9.27114 7.05899 9.54099 6.6883L19.0485 15.8207L9.51918 24.9736C9.4488 24.8728 9.37792 24.7954 9.31213 24.7236H9.31212C9.1383 24.5339 9 24.383 9 23.9389V8.66174ZM12.2846 25.3201C11.6683 25.6404 11.0919 25.7434 10.6039 25.6597L19.9481 16.684L23.0923 19.7041L12.2846 25.3201ZM27.3809 17.4748L24.2601 19.0967L20.8476 15.819L24.2409 12.5599L27.3789 14.1858C29.1228 15.0894 29.1239 16.5695 27.3809 17.4748Z" fill="#1B1F27"/>
<path d="M37.2238 21.144C38.3158 21.144 39.2638 20.724 39.8038 20.196V16.596H36.9478V18.036H38.2438V19.38C38.0518 19.536 37.7278 19.62 37.4038 19.62C35.9398 19.62 35.2078 18.684 35.2078 17.076C35.2078 15.504 36.0598 14.556 37.2718 14.556C37.9438 14.556 38.3518 14.832 38.7478 15.18L39.6718 14.052C39.1558 13.524 38.3398 13.032 37.2118 13.032C35.1238 13.032 33.3958 14.544 33.3958 17.136C33.3958 19.764 35.0758 21.144 37.2238 21.144ZM43.8321 21.144C45.3321 21.144 46.7241 20.004 46.7241 18.024C46.7241 16.044 45.3321 14.904 43.8321 14.904C42.3201 14.904 40.9281 16.044 40.9281 18.024C40.9281 20.004 42.3201 21.144 43.8321 21.144ZM43.8321 19.716C43.1001 19.716 42.7401 19.056 42.7401 18.024C42.7401 16.992 43.1001 16.332 43.8321 16.332C44.5521 16.332 44.9241 16.992 44.9241 18.024C44.9241 19.056 44.5521 19.716 43.8321 19.716ZM50.4883 21.144C51.9883 21.144 53.3803 20.004 53.3803 18.024C53.3803 16.044 51.9883 14.904 50.4883 14.904C48.9763 14.904 47.5843 16.044 47.5843 18.024C47.5843 20.004 48.9763 21.144 50.4883 21.144ZM50.4883 19.716C49.7563 19.716 49.3963 19.056 49.3963 18.024C49.3963 16.992 49.7563 16.332 50.4883 16.332C51.2083 16.332 51.5803 16.992 51.5803 18.024C51.5803 19.056 51.2083 19.716 50.4883 19.716ZM56.7126 23.532C58.7526 23.532 60.0366 22.632 60.0366 21.396C60.0366 20.328 59.2326 19.884 57.7686 19.884H56.8086C56.1486 19.884 55.9086 19.74 55.9086 19.44C55.9086 19.236 55.9686 19.128 56.1246 18.996C56.3886 19.08 56.6286 19.116 56.8446 19.116C58.1526 19.116 59.1846 18.48 59.1846 17.112C59.1846 16.8 59.1006 16.512 58.9926 16.332H59.9406V15.048H57.7686C57.5046 14.952 57.1806 14.904 56.8446 14.904C55.5606 14.904 54.3846 15.624 54.3846 17.052C54.3846 17.748 54.7686 18.312 55.1886 18.6V18.648C54.8046 18.912 54.5166 19.332 54.5166 19.764C54.5166 20.256 54.7566 20.568 55.0686 20.772V20.82C54.5166 21.132 54.2166 21.528 54.2166 22.02C54.2166 23.076 55.3206 23.532 56.7126 23.532ZM56.8446 18.048C56.3766 18.048 56.0286 17.712 56.0286 17.052C56.0286 16.416 56.3766 16.092 56.8446 16.092C57.3126 16.092 57.6606 16.428 57.6606 17.052C57.6606 17.712 57.3126 18.048 56.8446 18.048ZM56.9886 22.428C56.1966 22.428 55.6686 22.188 55.6686 21.744C55.6686 21.528 55.7766 21.348 55.9926 21.156C56.1846 21.204 56.4246 21.228 56.8326 21.228H57.4446C58.0326 21.228 58.3566 21.324 58.3566 21.696C58.3566 22.104 57.7806 22.428 56.9886 22.428ZM62.6188 21.144C63.0148 21.144 63.3148 21.084 63.5068 21L63.2908 19.692C63.1948 19.716 63.1468 19.716 63.0748 19.716C62.9308 19.716 62.7628 19.596 62.7628 19.224V12.588H60.9988V19.152C60.9988 20.352 61.4068 21.144 62.6188 21.144ZM67.0963 21.144C67.8043 21.144 68.5963 20.892 69.2083 20.472L68.6203 19.404C68.1883 19.668 67.7803 19.8 67.3363 19.8C66.5443 19.8 65.9443 19.404 65.7883 18.54H69.3523C69.3883 18.396 69.4243 18.072 69.4243 17.76C69.4243 16.14 68.5843 14.904 66.8923 14.904C65.4643 14.904 64.0843 16.092 64.0843 18.024C64.0843 19.992 65.3923 21.144 67.0963 21.144ZM65.7763 17.376C65.8963 16.62 66.3763 16.248 66.9283 16.248C67.6363 16.248 67.9243 16.716 67.9243 17.376H65.7763ZM73.1896 21H74.9536V18.348H75.9256C77.5816 18.348 78.9856 17.532 78.9856 15.696C78.9856 13.8 77.5936 13.176 75.8776 13.176H73.1896V21ZM74.9536 16.944V14.58H75.7696C76.7296 14.58 77.2576 14.88 77.2576 15.696C77.2576 16.512 76.7896 16.944 75.8176 16.944H74.9536ZM81.8141 21.144C82.2101 21.144 82.5101 21.084 82.7021 21L82.4861 19.692C82.3901 19.716 82.3421 19.716 82.2701 19.716C82.1261 19.716 81.9581 19.596 81.9581 19.224V12.588H80.1941V19.152C80.1941 20.352 80.6021 21.144 81.8141 21.144ZM85.1277 21.144C85.7997 21.144 86.3517 20.832 86.8557 20.388H86.9037L87.0237 21H88.4637V17.592C88.4637 15.768 87.6237 14.904 86.0997 14.904C85.1637 14.904 84.3117 15.228 83.5557 15.684L84.1917 16.848C84.7677 16.512 85.2597 16.308 85.7637 16.308C86.4117 16.308 86.6637 16.644 86.6997 17.172C84.3477 17.412 83.3517 18.096 83.3517 19.344C83.3517 20.352 84.0357 21.144 85.1277 21.144ZM85.7277 19.776C85.3077 19.776 85.0437 19.596 85.0437 19.212C85.0437 18.756 85.4517 18.396 86.6997 18.228V19.272C86.3877 19.584 86.1237 19.776 85.7277 19.776ZM90.6158 23.328C92.0198 23.328 92.6558 22.56 93.2198 21.06L95.2838 15.048H93.5918L92.8718 17.604C92.7278 18.168 92.5958 18.732 92.4638 19.296H92.4158C92.2598 18.708 92.1158 18.144 91.9478 17.604L91.0958 15.048H89.3198L91.6118 20.844L91.5278 21.156C91.3718 21.624 91.0718 21.936 90.4838 21.936C90.3518 21.936 90.1958 21.888 90.0878 21.864L89.7758 23.208C90.0158 23.28 90.2558 23.328 90.6158 23.328Z" fill="#1B1F27"/>
</svg>
