<svg width="112" height="24" viewBox="0 0 112 24" fill="none" xmlns="http://www.w3.org/2000/svg">
<path fill-rule="evenodd" clip-rule="evenodd" d="M35.034 8.31822C33.9754 8.31822 32.7765 8.86611 32.0852 12.2113C31.3166 15.9315 32.8495 16.1693 33.5926 16.1693C34.2683 16.1693 35.7069 15.7942 36.4223 12.2322C36.9243 9.73926 36.5251 8.31822 35.034 8.31822ZM40.2942 12.2323C39.3264 17.8615 35.889 18.5807 32.9799 18.5807C30.1076 18.5807 27.4623 16.5641 28.2103 12.2034C28.7952 8.79606 30.7798 5.64245 35.6061 5.88387C38.9718 6.05156 40.9514 8.40213 40.2942 12.2323Z" fill="white"/>
<path fill-rule="evenodd" clip-rule="evenodd" d="M47.6239 18.0981L47.4431 18.281C46.722 18.4197 45.8754 18.5339 45.416 18.5339C43.715 18.5339 41.22 18.2723 42.275 13.8979C42.9897 10.9416 43.5016 8.72978 43.5016 8.72978L41.9255 8.77604L41.79 8.59317L42.4438 6.27296L42.6012 6.15876H44.0873L44.741 3.1967L44.8977 3.03696C46.588 2.64664 47.0382 2.53099 48.5924 2.07129L48.7271 2.21007L47.7359 6.20502L50.0338 6.15876L50.1232 6.31922C49.8084 7.28417 49.7176 7.53715 49.4255 8.61558L49.2461 8.77604L47.1736 8.72978C47.1736 8.72978 46.7525 10.5122 46.1633 12.9929C45.5266 15.6738 45.862 15.5386 46.4987 15.7938C47.0432 16.0135 47.7579 15.7323 48.1634 15.595L48.2996 15.7114L47.6239 18.0981Z" fill="white"/>
<path fill-rule="evenodd" clip-rule="evenodd" d="M53.9487 15.8033C55.0158 15.9327 56.1786 15.5735 56.9663 14.9063C57.8668 14.1264 58.6779 12.5196 58.6779 10.7748C58.6779 8.84488 57.4619 8.61647 57.0117 8.61647C56.3594 8.61647 55.8624 8.96053 55.3894 9.28146L53.9487 15.8033ZM55.7734 7.00897C56.3598 6.59625 57.3276 5.90669 58.791 5.90669C61.0436 5.90669 62.5524 7.62769 62.5524 10.5442C62.5524 12.198 61.9894 14.1496 60.8181 15.5959C58.5882 18.3744 55.7734 18.3505 53.3854 18.3505L52.1042 23.8381L51.9461 23.9523C51.4278 23.9523 50.9322 23.9313 50.4146 23.9313C49.6482 23.9313 48.9725 23.9761 48.1401 24L48.0273 23.8381C48.0273 23.8381 48.82 21.4051 49.8077 17.2208C50.845 12.8305 51.8142 7.68696 51.8993 6.63961L52.0567 6.4806L55.9081 5.83875L56.0428 5.99849L55.7734 7.00897Z" fill="white"/>
<path fill-rule="evenodd" clip-rule="evenodd" d="M65.5045 16.5144C66.78 16.5751 68.6575 16.5368 70.1217 15.5271C71.7886 14.3547 72.5777 12.312 72.5777 10.8418C72.5777 8.75364 71.3376 7.94915 69.8955 7.94915C68.7476 7.94915 67.9372 8.45512 67.2161 8.9141C67.2161 8.9141 65.6442 15.9506 65.5045 16.5144ZM62.7568 18.1895C62.9064 17.4927 63.8778 13.4139 64.869 8.82626C65.7191 4.8913 66.3105 2.4352 66.5182 0.601442L66.6976 0.440979L69.1529 0.00512695L69.2657 0.167036L68.6353 2.71493L67.598 7.1226C68.5453 6.59423 69.4458 6.08899 70.8872 6.08899C73.1164 6.08899 74.9861 7.62784 74.9861 10.522C74.9861 11.6922 74.6259 13.896 73.1164 15.664C71.09 18.029 68.59 18.1895 65.6844 18.3051H64.4457L62.8696 18.3275L62.7568 18.1895Z" fill="white"/>
<path fill-rule="evenodd" clip-rule="evenodd" d="M85.3964 8.08782C85.0575 8.08782 84.7207 8.06542 84.3818 8.06542C83.6387 8.06542 82.1746 8.11095 80.8452 9.02892C78.4806 10.6813 78.4366 13.6448 78.4366 13.759C78.4366 14.8612 79.0223 16.6285 81.0707 16.6285C81.6783 16.6285 82.6851 16.4825 83.7734 15.5031L85.3964 8.08782ZM87.0613 11.0027C86.2736 14.5387 86.1169 15.4111 85.6667 18.144L85.5086 18.3038L83.3914 18.3507L83.278 18.191L83.4361 17.2723C83.0532 17.5932 82.062 18.4425 80.1469 18.4425C77.8504 18.4425 75.9814 16.7895 75.9814 13.9199C75.9814 12.1071 76.8372 10.1317 77.7831 8.98318C79.8768 6.48082 82.7824 6.34204 84.8548 6.34204L87.9625 6.36445L88.0745 6.54876L87.0613 11.0027Z" fill="white"/>
<path fill-rule="evenodd" clip-rule="evenodd" d="M98.2146 18.1672L98.0338 18.3038L95.7373 18.374L95.6458 18.2128C95.9769 16.6667 97.3645 11.4885 97.3808 9.87737C97.3964 8.50042 96.5484 8.04 95.4891 8.04C94.0938 8.04 93.1699 8.75341 92.4942 9.25865C91.6597 13.1163 91.3903 14.3335 90.6685 18.1672L90.5125 18.3038L88.2146 18.374L88.1025 18.2128C88.1025 18.2128 88.7853 15.4032 89.4015 12.4809C89.8864 10.1932 90.2835 8.30743 90.4671 6.73388L90.6245 6.57197C91.6831 6.43536 91.932 6.3891 93.0111 6.15925L93.1238 6.31899L92.809 7.49066C93.6875 6.8929 94.8141 6.09131 96.6824 6.09131C97.4255 6.09131 99.8581 6.29586 99.8581 9.07505C99.8581 10.7361 98.4351 16.5453 98.2146 18.1672Z" fill="white"/>
<path fill-rule="evenodd" clip-rule="evenodd" d="M106.82 11.3198L110.311 18.0924L110.175 18.2753L107.676 18.3454L107.494 18.2067C106.913 16.5941 104.365 11.5265 104.365 11.5265C103.712 14.4423 103.576 15.1304 103.013 18.1611L102.855 18.2984L100.581 18.3454L100.491 18.2067C100.491 18.2067 101.693 13.1159 102.733 8.40395C103.219 6.20084 103.974 2.71113 104.275 0.596198L104.433 0.458142L106.887 0.0461426L107.022 0.207328C106.569 1.79317 104.433 11.2041 104.433 11.2041C106.047 9.76211 108.734 6.88751 109.094 6.49719L109.342 6.35913H111.933L112 6.56586C111.361 7.08194 110.175 8.1741 109.747 8.56369L106.82 11.3198Z" fill="white"/>
<path fill-rule="evenodd" clip-rule="evenodd" d="M11.1111 0V4.09687C7.19374 4.10409 4.02016 7.34444 4.02016 11.3394C4.02016 15.3394 7.20083 18.5819 11.1238 18.5819C15.0242 18.5819 18.2283 15.369 18.2283 11.3126L22.2484 11.3155C22.2484 17.6025 17.2675 22.6802 11.1238 22.6802C4.98017 22.6802 0 17.6025 0 11.3394C0 5.08133 4.9745 0.00650526 11.1111 0Z" fill="white"/>
<path fill-rule="evenodd" clip-rule="evenodd" d="M11.1502 6.30872C13.8764 6.30872 16.085 8.5617 16.085 11.3394C16.085 14.1179 13.8764 16.3687 11.1509 16.3687C8.42611 16.3687 6.2168 14.1179 6.2168 11.3394C6.2168 8.5617 8.42611 6.30872 11.1502 6.30872Z" fill="white"/>
<path fill-rule="evenodd" clip-rule="evenodd" d="M17.4025 2.08521C18.9638 2.08521 20.2294 3.37758 20.2294 4.9692C20.2294 6.5601 18.9638 7.85103 17.4025 7.85103C15.8412 7.85103 14.5742 6.5601 14.5742 4.9692C14.5742 3.37758 15.8412 2.08521 17.4025 2.08521Z" fill="white"/>
</svg>
