<svg width="20" height="20" viewBox="0 0 20 20" fill="none" xmlns="http://www.w3.org/2000/svg">
<path fill-rule="evenodd" clip-rule="evenodd" d="M5.94768 0H14.0173C17.2968 0 19.965 2.66812 19.965 5.94768V14.0173C19.965 17.2969 17.2969 19.965 14.0173 19.965H5.94768C2.66812 19.965 0 17.2969 0 14.0173V5.94768C0 2.66812 2.66812 0 5.94768 0ZM14.0174 17.9566C16.1929 17.9566 17.9566 16.1929 17.9566 14.0174V5.94773C17.9566 3.77215 16.1929 2.00852 14.0174 2.00852H5.94772C3.77217 2.00852 2.00851 3.77215 2.00851 5.94773V14.0174C2.00851 16.1929 3.77217 17.9566 5.94772 17.9566H14.0174Z" fill="#1B1F27"/>
<path fill-rule="evenodd" clip-rule="evenodd" d="M4.81888 9.98247C4.81888 7.13526 7.13529 4.81885 9.98254 4.81885C12.8298 4.81885 15.1462 7.13522 15.1462 9.98247C15.1462 12.8297 12.8298 15.1461 9.98254 15.1461C7.13529 15.1461 4.81888 12.8297 4.81888 9.98247ZM6.82739 9.98255C6.82739 11.7251 8.24 13.1377 9.98257 13.1377C11.7251 13.1377 13.1378 11.7251 13.1378 9.98255C13.1378 8.23998 11.7251 6.82737 9.98257 6.82737C8.24003 6.82737 6.82739 8.23998 6.82739 9.98255Z" fill="#1B1F27"/>
<path d="M15.1564 6.095C15.8397 6.095 16.3937 5.54103 16.3937 4.85768C16.3937 4.17433 15.8397 3.62036 15.1564 3.62036C14.473 3.62036 13.9191 4.17433 13.9191 4.85768C13.9191 5.54103 14.473 6.095 15.1564 6.095Z" fill="#1B1F27"/>
</svg>
