<svg width="318" height="483" viewBox="0 0 318 483" fill="none" xmlns="http://www.w3.org/2000/svg">
<path fill-rule="evenodd" clip-rule="evenodd" d="M76.2152 0V87.2471C-8.82838 87.4011 -77.7251 156.408 -77.7251 241.485C-77.7251 326.669 -8.67387 395.722 76.4919 395.722C161.167 395.722 230.725 327.301 230.725 240.915L318 240.976C318 374.865 209.868 483 76.4919 483C-56.8833 483 -165 374.865 -165 241.485C-165 108.212 -57.0062 0.138537 76.2152 0ZM76.4851 134.527C135.714 134.527 183.699 182.623 183.699 241.921C183.699 301.234 135.714 349.284 76.5005 349.284C17.3018 349.284 -30.698 301.234 -30.698 241.921C-30.698 182.623 17.3018 134.527 76.4851 134.527ZM273.503 105.78C273.503 72.0008 245.982 44.5721 212.031 44.5721C178.081 44.5721 150.529 72.0008 150.529 105.78C150.529 139.545 178.081 166.943 212.031 166.943C245.982 166.943 273.503 139.545 273.503 105.78Z" fill="#52AE30" fill-opacity="0.5"/>
</svg>
