<svg width="36" height="36" viewBox="0 0 36 36" fill="none" xmlns="http://www.w3.org/2000/svg">
<circle cx="18" cy="18" r="18" fill="#8E939F"/>
<path fill-rule="evenodd" clip-rule="evenodd" d="M11.7142 7.71436C9.50509 7.71436 7.71423 9.50522 7.71423 11.7144V24.2858C7.71423 26.4949 9.5051 28.2858 11.7142 28.2858H24.2857C26.4948 28.2858 28.2857 26.4949 28.2857 24.2858V11.7144C28.2857 9.50522 26.4948 7.71436 24.2857 7.71436H11.7142ZM17.9999 24.4286C21.5503 24.4286 24.4285 21.5505 24.4285 18.0001C24.4285 14.4497 21.5503 11.5715 17.9999 11.5715C14.4495 11.5715 11.5714 14.4497 11.5714 18.0001C11.5714 21.5505 14.4495 24.4286 17.9999 24.4286ZM25.7142 11.5715C25.7142 12.2816 25.1386 12.8572 24.4285 12.8572C23.7184 12.8572 23.1428 12.2816 23.1428 11.5715C23.1428 10.8614 23.7184 10.2858 24.4285 10.2858C25.1386 10.2858 25.7142 10.8614 25.7142 11.5715ZM17.9999 21.8572C20.1302 21.8572 21.8571 20.1303 21.8571 18.0001C21.8571 15.8698 20.1302 14.1429 17.9999 14.1429C15.8697 14.1429 14.1428 15.8698 14.1428 18.0001C14.1428 20.1303 15.8697 21.8572 17.9999 21.8572Z" fill="#EFF2F9"/>
</svg>
