<svg width="158" height="30" viewBox="0 0 158 30" fill="none" xmlns="http://www.w3.org/2000/svg">
<path fill-rule="evenodd" clip-rule="evenodd" d="M0 14.904C0 6.72995 6.70808 0.101334 14.9814 0.0908203V5.44207C9.7001 5.45259 5.4197 9.68417 5.4197 14.8988C5.4197 20.1238 9.71075 24.3554 14.9974 24.3554C20.2573 24.3554 24.5803 20.1606 24.5803 14.862L30 14.8672C30 23.0781 23.2813 29.7119 14.9974 29.7119C6.71873 29.7119 0 23.0833 0 14.904Z" fill="white"/>
<path d="M8.38477 14.904C8.38477 11.277 11.3661 8.33325 15.0396 8.33325C18.7131 8.33325 21.6944 11.277 21.6944 14.904C21.6944 18.5311 18.7131 21.4748 15.0396 21.4748C11.3608 21.4748 8.38477 18.5311 8.38477 14.904Z" fill="white"/>
<path d="M19.6504 6.58284C19.6504 4.50121 21.3594 2.81909 23.4623 2.81909C25.5705 2.81909 27.2742 4.50647 27.2742 6.58284C27.2742 8.65921 25.5652 10.3466 23.4623 10.3466C21.3594 10.3466 19.6504 8.65921 19.6504 6.58284Z" fill="white"/>
<path d="M141.093 10.0626L140.625 12.365C139.507 17.3799 139.092 18.9989 138.123 23.9874L137.91 24.1662L134.822 24.2555L134.673 24.0453L135.913 18.9095L136.275 17.2274C134.95 17.2011 133.629 17.1748 132.304 17.1748C131.271 17.1748 130.478 17.1906 129.674 17.2116C129.221 19.2302 128.843 21.0069 128.263 23.9927L128.05 24.1714L124.967 24.2608L124.818 24.0505L126.059 18.9148L126.543 16.6755C127.358 13.1535 127.512 12.3755 127.997 9.12169L128.21 8.91142C129.631 8.7327 129.961 8.67487 131.415 8.37524L131.564 8.58551L131.239 10.0679L130.77 12.3703L130.281 14.557C131.393 14.5781 132.506 14.5991 133.619 14.5991C134.801 14.5991 135.573 14.5781 136.888 14.5518C137.308 12.6436 137.484 11.6028 137.857 9.12169L138.069 8.91142C139.491 8.7327 139.826 8.67487 141.274 8.37524L141.424 8.58551L141.093 10.0626Z" fill="white"/>
<path d="M102.756 16.77C102.969 15.8974 103.118 15.03 103.118 14.189C103.118 11.1612 101.143 10.6513 100.02 10.6513C95.2498 10.6513 94.6428 17.9738 94.6428 19.0829C94.6428 21.4852 96.1016 22.5365 97.7413 22.5365C100.994 22.5312 102.208 19.2301 102.756 16.77ZM105.919 17.7004C105.248 20.2814 103.395 24.7495 97.6828 24.7495C93.6419 24.7495 91.4219 22.6784 91.4219 18.5993C91.4219 18.0736 91.4645 17.4849 91.555 16.8699C91.5709 16.7174 91.5922 16.565 91.6189 16.4125C92.7156 9.6525 95.681 3.23941 102.197 3.17633C103.071 3.16582 104.827 3.07645 106.025 2.79785L105.583 5.49976C104.38 5.80465 102.469 5.96234 101.356 5.97286C99.972 5.98863 99.0137 6.50378 98.3536 7.13457C98.0235 7.44471 97.7733 7.78114 97.571 8.09654C97.374 8.40142 97.2302 8.68528 97.1238 8.9008C97.9916 8.63271 98.9445 8.4645 100.02 8.4645C104.002 8.4645 106.371 10.6565 106.371 14.5254C106.371 15.5715 106.19 16.6491 105.919 17.7004Z" fill="white"/>
<path fill-rule="evenodd" clip-rule="evenodd" d="M118.579 20.3235C118.243 20.5916 117.913 20.8912 117.578 21.1015C116.79 21.5799 115.762 21.7901 114.948 21.7901C112.195 21.7901 111.407 19.493 111.407 18.0579C111.407 17.9055 111.466 14.0576 114.644 11.9077C116.428 10.7144 118.392 10.6566 119.393 10.6566C119.846 10.6566 120.303 10.6881 120.756 10.6881L118.579 20.3235ZM124.355 8.68008L124.206 8.43828L120.032 8.40674C117.253 8.40674 113.351 8.58546 110.534 11.8393C109.262 13.3322 108.117 15.9027 108.117 18.2577C108.117 21.9899 110.625 24.1398 113.713 24.1398C116.284 24.1398 117.615 23.0359 118.126 22.6154L117.913 23.8087L118.062 24.0189L120.905 23.9611L121.118 23.7508C121.725 20.1974 121.933 19.0619 122.992 14.4624L124.355 8.68008Z" fill="white"/>
<path fill-rule="evenodd" clip-rule="evenodd" d="M49.0333 16.092C48.4637 18.7361 47.7982 19.5088 47.4681 19.9241C46.957 20.5496 46.1744 21.0805 45.2747 21.0805C44.2844 21.0805 43.4699 20.6074 43.1398 19.656C43.0493 19.451 42.9588 19.062 42.9588 18.3523C42.9588 16.9856 43.5923 13.6003 44.7316 12.1443C45.0617 11.7605 45.7858 10.9247 47.1966 10.9247C48.9694 10.9247 49.3315 12.4702 49.3315 13.5688C49.3315 14.4887 49.1824 15.3508 49.0333 16.092ZM53.9632 17.2222C54.2028 16.2444 54.3519 15.2299 54.3519 14.2522C54.3519 12.4702 53.9898 10.8091 52.4566 9.44235C51.0404 8.19652 49.1185 7.78125 47.2232 7.78125C39.4024 7.78125 37.9277 14.9408 37.9277 17.669C37.9277 19.8978 38.5613 21.5273 39.8816 22.6575C41.3244 23.9033 43.4326 24.203 44.9978 24.203C47.2818 24.203 49.241 23.7299 50.9552 22.3316C52.5524 21.0542 53.4841 19.1776 53.9632 17.2222Z" fill="white"/>
<path d="M66.2451 11.8657H65.8991C65.6169 13.0485 65.2975 14.4205 64.8023 16.6072L64.3179 18.8203C63.7748 21.3645 63.6843 21.99 63.3489 24.0559L63.136 24.2031L57.8973 24.324L57.7482 24.1137C58.6586 20.6128 58.8396 19.9294 59.718 16.0973L60.0534 14.6307C60.325 13.4217 60.4953 12.6332 60.6337 11.892H60.4687L58.8396 11.9183L55.3258 12.0392L55.1768 11.7974L56.1776 8.29649L56.4225 8.14405H66.687L71.8937 8.05469L72.0748 8.23341L71.1058 11.7606L70.8609 11.9709L67.8955 11.85H66.2451V11.8657Z" fill="white"/>
<path d="M84.1012 11.8237L78.3727 11.871C78.3727 11.871 77.6593 14.1314 77.0364 16.6493C76.4135 19.1672 75.7054 21.9638 75.2848 24.0296L75.0666 24.1768L70.1633 24.2977L70.0195 24.0875C71.0683 20.5865 71.276 19.9032 72.3088 16.0711L72.7028 14.6045C73.0328 13.3429 73.2085 12.5386 73.4108 11.7712L74.268 8.27024L74.5022 8.12305H84.4153L89.622 8.03369L89.8137 8.21242C89.8137 8.21242 88.8075 13.0748 88.1793 16.3812C87.551 19.6877 86.827 24.0244 86.827 24.0244L86.6194 24.1716L81.5085 24.2767L81.3487 24.0664C82.158 20.5865 82.7383 18.0371 83.1748 16.0501C83.6167 14.0736 83.9148 12.6753 84.1012 11.8237Z" fill="white"/>
<path d="M147.226 14.9303C147.945 14.31 148.371 13.921 149.361 12.9695C150.421 11.955 152.992 9.32669 153.477 8.8168L153.807 8.63808H157.283L157.374 8.90616C157.07 9.17425 156.921 9.29515 155.713 10.3097C155.228 10.6987 154.925 10.9983 154.35 11.5029L150.421 15.088L155.106 23.8981L154.925 24.1399L151.571 24.2292L151.326 24.0505C150.538 22.2002 150.325 21.7797 149.239 19.6034L147.12 15.3613C146.454 18.2998 146.044 20.1501 145.299 23.9927L145.086 24.1714L142.004 24.2608L141.854 24.0505L143.095 18.9148L143.579 16.6755C144.394 13.1535 144.548 12.3755 145.033 9.12169L145.246 8.91142C146.667 8.7327 146.997 8.67487 148.451 8.37524L148.6 8.58551L148.275 10.0679L147.807 12.3703L147.226 14.9303Z" fill="white"/>
</svg>
