<svg width="164" height="48" viewBox="0 0 164 48" fill="none" xmlns="http://www.w3.org/2000/svg">
<g clip-path="url(#clip0)">
<path d="M6.033 0H158.033C161.333 0 164.033 2.7 164.033 6V42C164.033 45.3 161.333 48 158.033 48H6.033C2.733 48 0.033 45.3 0.033 42V6C0.033 2.7 2.733 0 6.033 0Z" fill="black"/>
<path d="M35.133 23.7C35.133 19.8 38.333 18 38.433 17.9C36.633 15.3 33.833 14.9 32.833 14.9C30.433 14.7 28.233 16.3 27.033 16.3C25.833 16.3 23.933 14.9 21.933 15C19.333 15 16.933 16.5 15.633 18.8C12.933 23.5 14.933 30.4 17.533 34.2C18.833 36.1 20.333 38.1 22.333 38.1C24.233 38 25.033 36.9 27.333 36.9C29.633 36.9 30.333 38.1 32.333 38.1C34.433 38.1 35.733 36.2 37.033 34.3C38.533 32.2 39.133 30.1 39.133 30C39.133 29.9 35.133 28.4 35.133 23.7ZM31.233 12.4C32.233 11.1 33.033 9.3 32.833 7.5C31.333 7.6 29.433 8.5 28.333 9.8C27.333 10.9 26.533 12.8 26.733 14.5C28.433 14.6 30.133 13.7 31.233 12.4Z" fill="white"/>
<path d="M63.333 37.8001H60.633L59.133 33.1001H53.933L52.533 37.8001H49.833L54.933 21.8001H58.133L63.333 37.8001ZM58.633 31.1001L57.233 27.0001C57.133 26.6001 56.833 25.6001 56.433 24.0001C56.233 24.7001 56.033 25.7001 55.633 27.0001L54.333 31.1001H58.633ZM76.533 31.9001C76.533 33.9001 76.033 35.4001 74.933 36.5001C74.033 37.5001 72.833 38.0001 71.433 38.0001C69.933 38.0001 68.833 37.5001 68.133 36.4001V42.5001H65.533V30.1001C65.533 28.8001 65.533 27.6001 65.433 26.3001H67.633L67.733 28.1001C68.633 26.7001 69.833 26.0001 71.633 26.0001C73.033 26.0001 74.133 26.5001 75.033 27.6001C76.033 28.7001 76.533 30.2001 76.533 31.9001ZM73.933 32.0001C73.933 30.9001 73.633 30.0001 73.133 29.2001C72.533 28.4001 71.833 28.1001 70.933 28.1001C70.333 28.1001 69.733 28.3001 69.233 28.7001C68.733 29.1001 68.433 29.7001 68.233 30.3001C68.133 30.6001 68.133 30.9001 68.133 31.1001V33.0001C68.133 33.8001 68.433 34.5001 68.933 35.1001C69.433 35.7001 70.133 36.0001 70.933 36.0001C71.933 36.0001 72.633 35.6001 73.133 34.9001C73.633 34.2001 73.933 33.2001 73.933 32.0001ZM89.733 31.9001C89.733 33.9001 89.233 35.4001 88.133 36.5001C87.233 37.5001 86.033 38.0001 84.633 38.0001C83.133 38.0001 82.033 37.5001 81.333 36.4001V42.5001H78.733V30.1001C78.733 28.8001 78.733 27.6001 78.633 26.3001H80.833L80.933 28.1001C81.733 26.7001 83.033 26.0001 84.833 26.0001C86.233 26.0001 87.333 26.5001 88.233 27.6001C89.233 28.7001 89.733 30.2001 89.733 31.9001ZM87.133 32.0001C87.133 30.9001 86.833 30.0001 86.333 29.2001C85.733 28.4001 85.033 28.1001 84.133 28.1001C83.533 28.1001 82.933 28.3001 82.433 28.7001C81.933 29.1001 81.633 29.7001 81.433 30.3001C81.333 30.6001 81.333 30.9001 81.333 31.1001V33.0001C81.333 33.8001 81.633 34.5001 82.133 35.1001C82.633 35.7001 83.333 36.0001 84.133 36.0001C85.133 36.0001 85.833 35.6001 86.333 34.9001C86.833 34.2001 87.133 33.2001 87.133 32.0001ZM104.533 33.3001C104.533 34.7001 104.033 35.8001 103.133 36.6001C102.133 37.5001 100.633 38.0001 98.833 38.0001C97.133 38.0001 95.733 37.7001 94.733 37.0001L95.333 34.9001C96.433 35.6001 97.733 35.9001 99.033 35.9001C100.033 35.9001 100.733 35.7001 101.233 35.2001C101.733 34.8001 102.033 34.2001 102.033 33.5001C102.033 32.9001 101.833 32.3001 101.333 31.9001C100.933 31.5001 100.133 31.0001 99.133 30.7001C96.333 29.7001 94.933 28.1001 94.933 26.1001C94.933 24.8001 95.433 23.7001 96.433 22.9001C97.433 22.1001 98.733 21.6001 100.333 21.6001C101.833 21.6001 103.033 21.9001 103.933 22.4001L103.333 24.5001C102.433 24.0001 101.433 23.8001 100.233 23.8001C99.333 23.8001 98.633 24.0001 98.133 24.5001C97.733 24.9001 97.533 25.4001 97.533 25.9001C97.533 26.5001 97.733 27.1001 98.233 27.5001C98.633 27.9001 99.433 28.3001 100.533 28.7001C101.933 29.3001 102.933 29.9001 103.533 30.6001C104.133 31.3001 104.533 32.2001 104.533 33.3001ZM112.933 28.2001H110.133V33.8001C110.133 35.2001 110.633 35.9001 111.633 35.9001C112.133 35.9001 112.433 35.9001 112.733 35.8001L112.833 37.7001C112.333 37.9001 111.633 38.0001 110.833 38.0001C109.833 38.0001 109.033 37.7001 108.433 37.1001C107.833 36.5001 107.533 35.4001 107.533 34.0001V28.2001H105.833V26.3001H107.533V24.2001L110.033 23.4001V26.3001H112.833L112.933 28.2001ZM125.633 32.0001C125.633 33.8001 125.133 35.2001 124.133 36.4001C123.033 37.6001 121.633 38.2001 119.933 38.2001C118.233 38.2001 116.933 37.6001 115.933 36.5001C114.933 35.4001 114.433 34.0001 114.433 32.3001C114.433 30.5001 114.933 29.1001 116.033 27.9001C117.033 26.8001 118.433 26.2001 120.233 26.2001C121.933 26.2001 123.233 26.8001 124.333 27.9001C125.133 28.8001 125.633 30.2001 125.633 32.0001ZM123.033 32.0001C123.033 30.9001 122.833 30.0001 122.333 29.3001C121.833 28.4001 121.033 27.9001 120.033 27.9001C119.033 27.9001 118.233 28.4001 117.733 29.3001C117.233 30.1001 117.033 31.0001 117.033 32.1001C117.033 33.2001 117.233 34.1001 117.733 34.8001C118.333 35.7001 119.033 36.2001 120.033 36.2001C121.033 36.2001 121.733 35.7001 122.333 34.8001C122.733 34.0001 123.033 33.1001 123.033 32.0001ZM133.933 28.5001C133.633 28.5001 133.433 28.4001 133.133 28.4001C132.233 28.4001 131.533 28.7001 131.033 29.4001C130.633 30.0001 130.433 30.8001 130.433 31.7001V37.7001H127.833V29.8001C127.833 28.5001 127.833 27.3001 127.733 26.2001H129.933L130.033 28.4001H130.133C130.433 27.6001 130.833 27.0001 131.433 26.6001C132.033 26.2001 132.633 26.0001 133.233 26.0001C133.433 26.0001 133.633 26.0001 133.833 26.0001L133.933 28.5001ZM145.433 31.5001C145.433 32.0001 145.433 32.3001 145.333 32.7001H137.633C137.633 33.8001 138.033 34.7001 138.733 35.3001C139.333 35.8001 140.233 36.1001 141.233 36.1001C142.333 36.1001 143.433 35.9001 144.333 35.6001L144.733 37.4001C143.633 37.9001 142.333 38.1001 140.833 38.1001C139.033 38.1001 137.633 37.6001 136.633 36.5001C135.633 35.5001 135.133 34.0001 135.133 32.3001C135.133 30.6001 135.633 29.1001 136.533 28.0001C137.533 26.8001 138.833 26.2001 140.533 26.2001C142.233 26.2001 143.433 26.8001 144.333 28.0001C145.033 28.9001 145.433 30.1001 145.433 31.5001ZM142.933 30.8001C142.933 30.0001 142.833 29.4001 142.433 28.8001C142.033 28.1001 141.333 27.7001 140.433 27.7001C139.633 27.7001 138.933 28.0001 138.433 28.7001C138.033 29.3001 137.733 29.9001 137.633 30.7001L142.933 30.8001Z" fill="white"/>
<path d="M51.033 8.7001C51.333 8.5001 51.633 8.4001 51.933 8.3001C52.333 8.2001 52.733 8.1001 53.133 8.1001C53.933 8.1001 54.433 8.3001 54.933 8.6001C55.333 9.0001 55.633 9.4001 55.633 10.0001C55.633 10.5001 55.533 10.9001 55.233 11.2001C54.933 11.5001 54.533 11.7001 54.133 11.9001C54.333 11.9001 54.633 12.0001 54.833 12.1001C55.033 12.2001 55.233 12.3001 55.433 12.5001C55.833 12.8001 55.933 13.3001 55.933 13.8001C55.933 14.2001 55.833 14.6001 55.633 14.9001C55.433 15.2001 55.233 15.4001 54.933 15.6001C54.633 15.8001 54.333 15.9001 54.033 16.0001C53.733 16.1001 53.333 16.1001 53.033 16.1001C52.633 16.1001 52.333 16.1001 51.933 16.0001C51.533 15.9001 51.233 15.8001 50.933 15.6001L51.233 14.6001C51.433 14.7001 51.733 14.8001 52.033 14.9001C52.333 15.0001 52.633 15.0001 53.033 15.0001C53.533 15.0001 53.933 14.9001 54.233 14.6001C54.533 14.4001 54.633 14.0001 54.633 13.6001C54.633 13.3001 54.533 13.1001 54.433 12.9001C54.333 12.7001 54.133 12.6001 53.933 12.5001C53.733 12.4001 53.533 12.3001 53.333 12.3001C53.133 12.3001 52.833 12.2001 52.633 12.2001H52.133V11.2001H52.633C52.833 11.2001 53.133 11.2001 53.333 11.1001C53.533 11.0001 53.733 11.0001 53.833 10.8001C54.033 10.7001 54.133 10.6001 54.233 10.4001C54.333 10.2001 54.333 10.1001 54.333 9.9001C54.333 9.6001 54.233 9.3001 53.933 9.1001C53.633 8.9001 53.333 8.8001 52.933 8.8001C52.633 8.8001 52.333 8.8001 52.033 8.9001C51.733 9.0001 51.533 9.1001 51.233 9.2001L51.033 8.7001ZM61.033 16.1001L60.933 15.4001C60.533 15.9001 60.033 16.2001 59.233 16.2001C58.933 16.2001 58.733 16.2001 58.533 16.1001C58.333 16.0001 58.133 15.9001 58.033 15.7001C57.833 15.6001 57.733 15.4001 57.633 15.2001C57.533 15.0001 57.533 14.8001 57.533 14.5001C57.533 13.8001 57.833 13.3001 58.433 12.9001C59.033 12.5001 59.833 12.4001 60.833 12.4001V12.3001C60.833 11.6001 60.433 11.2001 59.633 11.2001C59.033 11.2001 58.633 11.3001 58.133 11.6001L57.833 10.8001C58.333 10.5001 59.033 10.3001 59.733 10.3001C61.233 10.3001 61.933 11.1001 61.933 12.6001V14.7001C61.933 15.3001 61.933 15.7001 62.033 16.0001L61.033 16.1001ZM60.833 13.3001C60.133 13.3001 59.633 13.4001 59.233 13.6001C58.933 13.8001 58.733 14.1001 58.733 14.5001C58.733 14.8001 58.833 15.0001 58.933 15.2001C59.033 15.4001 59.333 15.4001 59.533 15.4001C59.833 15.4001 60.133 15.3001 60.333 15.1001C60.433 15.0001 60.533 14.9001 60.633 14.7001C60.733 14.6001 60.733 14.4001 60.733 14.2001C60.833 14.2001 60.833 13.3001 60.833 13.3001ZM68.133 10.5001V11.5001H65.833V16.1001H64.533V10.4001L68.133 10.5001ZM75.333 13.2001C75.333 13.6001 75.233 14.1001 75.133 14.4001C75.033 14.7001 74.833 15.1001 74.633 15.4001C74.433 15.7001 74.133 15.9001 73.833 16.0001C73.533 16.2001 73.133 16.2001 72.833 16.2001C72.133 16.2001 71.533 15.9001 71.233 15.4001V18.4001H69.933V12.3001C69.933 11.7001 69.933 11.1001 69.933 10.4001H71.033L71.133 11.3001C71.533 10.6001 72.233 10.3001 73.033 10.3001C73.333 10.3001 73.633 10.4001 73.933 10.5001C74.233 10.6001 74.433 10.8001 74.633 11.1001C74.833 11.4001 75.033 11.7001 75.133 12.0001C75.233 12.3001 75.333 12.8001 75.333 13.2001ZM74.033 13.3001C74.033 13.0001 74.033 12.8001 73.933 12.5001C73.833 12.3001 73.733 12.1001 73.633 11.9001C73.533 11.7001 73.333 11.6001 73.133 11.5001C72.933 11.4001 72.733 11.4001 72.533 11.4001C72.333 11.4001 72.133 11.4001 72.033 11.5001C71.833 11.6001 71.733 11.7001 71.633 11.8001C71.533 11.9001 71.433 12.1001 71.333 12.3001C71.233 12.5001 71.233 12.7001 71.233 12.9001V13.8001C71.233 14.0001 71.233 14.2001 71.333 14.4001C71.433 14.6001 71.533 14.7001 71.633 14.9001C71.733 15.1001 71.933 15.1001 72.033 15.2001C72.233 15.3001 72.333 15.3001 72.633 15.3001C73.133 15.3001 73.433 15.1001 73.733 14.8001C73.933 14.4001 74.033 13.9001 74.033 13.3001ZM82.033 10.5001L80.633 14.4001C80.333 15.3001 79.933 16.1001 79.633 16.7001C79.333 17.3001 79.033 17.7001 78.733 18.0001C78.333 18.4001 77.833 18.6001 77.333 18.7001L77.033 17.6001C77.333 17.5001 77.733 17.3001 77.933 17.1001C78.233 16.9001 78.433 16.5001 78.633 16.2001C78.733 16.1001 78.733 16.0001 78.733 15.9001C78.733 15.8001 78.733 15.8001 78.633 15.6001L76.633 10.4001H78.033L79.133 13.6001C79.233 13.7001 79.233 13.9001 79.333 14.1001C79.433 14.3001 79.433 14.5001 79.533 14.7001C79.533 14.6001 79.633 14.4001 79.633 14.2001C79.633 14.0001 79.733 13.8001 79.833 13.5001L80.833 10.4001L82.033 10.5001ZM84.233 12.8001H84.833C85.233 12.8001 85.633 12.7001 85.833 12.6001C86.033 12.5001 86.133 12.3001 86.133 12.0001C86.133 11.8001 86.033 11.6001 85.833 11.4001C85.633 11.3001 85.333 11.2001 85.033 11.2001C84.833 11.2001 84.533 11.2001 84.333 11.3001C84.133 11.4001 83.933 11.5001 83.733 11.6001L83.433 10.8001C83.733 10.6001 84.033 10.5001 84.433 10.4001C84.733 10.3001 85.033 10.3001 85.433 10.3001C85.733 10.3001 85.933 10.3001 86.233 10.4001C86.533 10.5001 86.733 10.5001 86.933 10.7001C87.133 10.8001 87.333 11.0001 87.433 11.2001C87.533 11.4001 87.633 11.6001 87.633 11.9001C87.633 12.1001 87.633 12.2001 87.533 12.4001C87.433 12.5001 87.333 12.7001 87.233 12.8001C87.133 12.9001 87.033 13.0001 86.833 13.1001C86.733 13.2001 86.533 13.2001 86.433 13.2001C86.633 13.2001 86.833 13.3001 86.933 13.3001C87.133 13.4001 87.233 13.5001 87.433 13.6001C87.533 13.7001 87.733 13.8001 87.733 14.0001C87.833 14.2001 87.833 14.3001 87.833 14.5001C87.833 14.8001 87.733 15.1001 87.633 15.3001C87.433 15.5001 87.233 15.7001 87.033 15.8001C86.733 15.9001 86.533 16.0001 86.233 16.1001C85.633 16.2001 84.933 16.2001 84.333 16.1001C84.033 16.0001 83.733 15.9001 83.433 15.8001L83.733 15.0001C83.933 15.1001 84.133 15.2001 84.433 15.3001C84.733 15.4001 84.933 15.4001 85.233 15.4001C85.633 15.4001 86.033 15.3001 86.233 15.2001C86.433 15.0001 86.533 14.8001 86.533 14.6001C86.533 14.4001 86.533 14.3001 86.433 14.2001C86.333 14.1001 86.233 14.0001 86.133 13.9001C85.933 13.8001 85.833 13.8001 85.633 13.8001C85.433 13.8001 85.233 13.8001 85.033 13.8001H84.433L84.233 12.8001ZM90.933 10.5001V12.5001C90.933 13.0001 90.933 13.4001 90.933 13.7001C90.933 14.1001 90.933 14.4001 90.833 14.9001L91.333 14.0001C91.433 13.7001 91.633 13.4001 91.733 13.1001L93.133 10.4001H94.733V16.1001H93.533V14.1001C93.533 13.7001 93.533 13.3001 93.533 12.8001C93.533 12.4001 93.533 12.0001 93.633 11.5001H93.533C93.433 11.9001 93.233 12.2001 93.133 12.4001C93.033 12.7001 92.833 12.9001 92.733 13.2001C92.533 13.7001 92.233 14.1001 92.033 14.6001C91.833 15.1001 91.533 15.5001 91.233 16.0001H89.633V10.3001C89.733 10.5001 90.933 10.5001 90.933 10.5001ZM101.433 10.5001V11.5001H99.733V16.1001H98.533V11.5001H96.833V10.5001H101.433ZM107.833 13.0001C107.833 13.1001 107.833 13.2001 107.833 13.3001C107.833 13.4001 107.833 13.5001 107.833 13.6001H104.033C104.033 14.1001 104.233 14.5001 104.533 14.8001C104.833 15.1001 105.233 15.2001 105.833 15.2001C106.333 15.2001 106.833 15.1001 107.333 14.9001L107.533 15.8001C107.033 16.0001 106.333 16.2001 105.633 16.2001C105.233 16.2001 104.833 16.1001 104.433 16.0001C104.133 15.9001 103.833 15.7001 103.533 15.4001C103.333 15.1001 103.133 14.8001 102.933 14.5001C102.833 14.1001 102.733 13.8001 102.733 13.3001C102.733 12.9001 102.833 12.5001 102.933 12.1001C103.033 11.7001 103.233 11.4001 103.433 11.1001C103.633 10.8001 103.933 10.6001 104.233 10.5001C104.533 10.3001 104.933 10.3001 105.333 10.3001C105.733 10.3001 106.033 10.4001 106.333 10.5001C106.633 10.6001 106.833 10.8001 107.033 11.0001C107.233 11.2001 107.433 11.5001 107.533 11.9001C107.733 12.3001 107.833 12.6001 107.833 13.0001ZM106.633 12.7001C106.633 12.3001 106.533 11.9001 106.333 11.6001C106.133 11.3001 105.833 11.2001 105.433 11.2001C105.033 11.2001 104.733 11.3001 104.533 11.6001C104.233 11.9001 104.133 12.2001 104.133 12.7001C104.033 12.7001 106.633 12.7001 106.633 12.7001ZM112.833 10.5001C113.033 10.5001 113.333 10.4001 113.733 10.4001C114.133 10.4001 114.433 10.4001 114.833 10.4001C115.033 10.4001 115.333 10.4001 115.633 10.4001C115.933 10.4001 116.233 10.5001 116.433 10.6001C116.733 10.7001 116.933 10.8001 117.133 11.0001C117.333 11.2001 117.433 11.5001 117.433 11.8001C117.433 12.1001 117.333 12.4001 117.133 12.6001C117.033 12.7001 116.933 12.8001 116.733 12.9001C116.633 13.0001 116.433 13.0001 116.333 13.0001C116.733 13.1001 117.033 13.2001 117.333 13.4001C117.633 13.6001 117.733 13.9001 117.733 14.3001C117.733 14.7001 117.633 15.0001 117.433 15.2001C117.233 15.4001 116.933 15.6001 116.633 15.7001C116.333 15.8001 115.933 15.9001 115.633 15.9001C115.333 15.9001 114.933 15.9001 114.733 15.9001C114.433 15.9001 114.133 15.9001 113.833 15.9001C113.533 15.9001 113.333 15.9001 113.033 15.9001L112.833 10.5001ZM114.033 12.8001H114.633C114.833 12.8001 115.033 12.8001 115.233 12.8001C115.433 12.8001 115.533 12.7001 115.733 12.7001C115.833 12.6001 115.933 12.6001 116.033 12.5001C116.133 12.4001 116.133 12.3001 116.133 12.1001C116.133 11.8001 116.033 11.7001 115.833 11.5001C115.633 11.4001 115.333 11.3001 114.833 11.3001C114.733 11.3001 114.633 11.3001 114.533 11.3001C114.433 11.3001 114.333 11.3001 114.133 11.3001V12.8001H114.033ZM114.033 15.3001C114.233 15.3001 114.333 15.3001 114.433 15.3001C114.733 15.3001 115.033 15.3001 115.333 15.3001C115.533 15.3001 115.633 15.2001 115.833 15.2001C115.933 15.1001 116.133 15.0001 116.233 14.9001C116.333 14.8001 116.333 14.6001 116.333 14.5001C116.333 14.2001 116.233 14.0001 115.933 13.8001C115.633 13.7001 115.233 13.6001 114.733 13.6001H114.033V15.3001Z" fill="white"/>
</g>
<defs>
<clipPath id="clip0">
<rect width="164" height="48" fill="white"/>
</clipPath>
</defs>
</svg>
