<svg width="64" height="64" viewBox="0 0 64 64" fill="none" xmlns="http://www.w3.org/2000/svg">
<rect width="64.0001" height="64.0001" rx="16.6956" fill="white"/>
<path fill-rule="evenodd" clip-rule="evenodd" d="M8 32.0043C8 18.7585 18.7329 8.01704 31.9702 8V16.6715C23.5202 16.6886 16.6715 23.5457 16.6715 31.9958C16.6715 40.4629 23.5372 47.32 31.9958 47.32C40.4118 47.32 47.3286 40.5225 47.3286 31.9361L56.0001 31.9447C56.0001 45.2501 45.2501 56.0001 31.9958 56.0001C18.75 56.0001 8 45.2586 8 32.0043Z" fill="#2A644A"/>
<path d="M21.4164 32.0035C21.4164 26.1259 26.1866 21.3557 32.0641 21.3557C37.9417 21.3557 42.7119 26.1259 42.7119 32.0035C42.7119 37.881 37.9417 42.6512 32.0641 42.6512C26.1781 42.6512 21.4164 37.881 21.4164 32.0035Z" fill="#52AE30"/>
<path d="M39.4408 18.5197C39.4408 15.1465 42.1751 12.4207 45.5398 12.4207C48.913 12.4207 51.6388 15.155 51.6388 18.5197C51.6388 21.8844 48.9045 24.6187 45.5398 24.6187C42.1751 24.6187 39.4408 21.8844 39.4408 18.5197Z" fill="#2A644A"/>
</svg>
