<svg width="164" height="48" viewBox="0 0 164 48" fill="none" xmlns="http://www.w3.org/2000/svg">
<g clip-path="url(#clip0)">
<path d="M5.991 0H157.991C161.291 0 163.991 2.7 163.991 6V42C163.991 45.3 161.291 48 157.991 48H5.991C2.691 48 -0.00900269 45.3 -0.00900269 42V6C-0.00900269 2.7 2.691 0 5.991 0Z" fill="black"/>
<path d="M11.691 8.30029C11.391 8.60029 11.091 9.30029 11.091 10.0003V37.0003C11.091 37.7003 11.291 38.3003 11.691 38.7003L11.791 38.8003L27.091 23.7003V23.5003L11.691 8.30029Z" fill="url(#paint0_linear)"/>
<path d="M32.091 28.8001L27.091 23.8001V23.4001L32.091 18.4001L32.191 18.5001L38.191 21.9001C39.891 22.9001 39.891 24.5001 38.191 25.4001C38.191 25.5001 32.091 28.8001 32.091 28.8001Z" fill="url(#paint1_linear)"/>
<path d="M32.191 28.7001L27.091 23.6001L11.691 38.8001C12.291 39.4001 13.191 39.4001 14.291 38.9001L32.191 28.7001Z" fill="url(#paint2_linear)"/>
<path d="M32.191 18.4001L14.291 8.30008C13.191 7.70008 12.291 7.80008 11.691 8.40008L27.091 23.6001L32.191 18.4001Z" fill="url(#paint3_linear)"/>
<path opacity="0.2" d="M32.091 28.6001L14.291 38.6001C13.291 39.2001 12.491 39.1001 11.891 38.6001L11.791 38.7001L11.891 38.8001C12.491 39.3001 13.391 39.4001 14.291 38.8001L32.091 28.6001Z" fill="black"/>
<path opacity="0.12" d="M11.691 38.6001C11.291 38.2001 11.191 37.6001 11.191 36.9001V37.0001C11.191 37.7001 11.391 38.3001 11.791 38.7001V38.6001C11.891 38.6001 11.691 38.6001 11.691 38.6001Z" fill="black"/>
<path opacity="0.12" d="M38.191 25.1001L32.091 28.6001L32.191 28.7001L38.191 25.3001C39.091 24.8001 39.391 24.2001 39.391 23.6001C39.391 24.2001 38.891 24.7001 38.191 25.1001Z" fill="black"/>
<path opacity="0.25" d="M14.291 8.4001L38.191 22.0001C38.891 22.5001 39.391 23.0001 39.391 23.6001C39.391 23.0001 38.991 22.4001 38.191 21.9001L14.291 8.3001C12.591 7.3001 11.191 8.2001 11.191 10.1001V10.2001C11.291 8.3001 12.591 7.4001 14.291 8.4001Z" fill="white"/>
<path d="M80.391 26.8C77.491 26.8 75.091 29 75.091 32C75.091 34.9 77.391 37.3 80.391 37.3C83.291 37.3 85.691 35.1 85.691 32C85.691 28.8 83.291 26.8 80.391 26.8ZM80.391 35.1C78.791 35.1 77.491 33.8 77.491 31.9C77.491 30 78.791 28.7 80.391 28.7C81.991 28.7 83.291 29.9 83.291 31.9C83.391 33.7 81.991 35.1 80.391 35.1ZM68.991 26.8C66.091 26.8 63.691 29 63.691 32.1C63.691 35 65.991 37.4 68.991 37.4C71.891 37.4 74.291 35.2 74.291 32.1C74.291 28.8 71.991 26.8 68.991 26.8ZM68.991 35.1C67.391 35.1 66.091 33.8 66.091 31.9C66.091 30 67.391 28.7 68.991 28.7C70.591 28.7 71.891 29.9 71.891 31.9C71.991 33.7 70.591 35.1 68.991 35.1ZM55.391 28.3V30.5H60.691C60.591 31.7 60.091 32.7 59.491 33.3C58.791 34 57.491 34.9 55.491 34.9C52.191 34.9 49.691 32.3 49.691 29C49.691 25.7 52.291 23.1 55.491 23.1C57.191 23.1 58.591 23.8 59.491 24.7L61.091 23.1C59.691 22 57.991 21 55.591 21C51.191 21 47.391 24.7 47.391 29.1C47.391 33.5 51.191 37.2 55.591 37.2C58.091 37.2 59.791 36.5 61.191 34.9C62.691 33.4 63.191 31.4 63.191 29.8C63.191 29.3 63.191 28.8 63.091 28.5C62.991 28.3 55.391 28.3 55.391 28.3ZM110.991 30.1C110.491 28.9 109.291 26.8 106.591 26.8C103.891 26.8 101.691 28.9 101.691 32.1C101.691 35 103.891 37.4 106.791 37.4C109.091 37.4 110.591 35.9 111.091 35.1L109.391 33.9C108.791 34.8 108.091 35.4 106.791 35.4C105.491 35.4 104.791 34.9 104.191 33.8L111.191 30.9L110.991 30.1ZM103.891 31.8C103.891 29.8 105.491 28.7 106.591 28.7C107.491 28.7 108.291 29.2 108.591 29.8L103.891 31.8ZM98.191 36.8H100.491V21.5H98.191V36.8ZM94.491 27.9C93.891 27.3 92.891 26.7 91.691 26.7C89.091 26.7 86.691 29 86.691 32C86.691 35 88.991 37.1 91.691 37.1C92.891 37.1 93.891 36.5 94.391 35.9H94.491V36.6C94.491 38.6 93.391 39.7 91.691 39.7C90.391 39.7 89.391 38.7 89.091 37.9L87.091 38.8C87.691 40.1 89.191 41.9 91.791 41.9C94.491 41.9 96.691 40.3 96.691 36.5V27H94.491V27.9ZM91.791 35.1C90.191 35.1 88.891 33.8 88.891 31.9C88.891 30 90.191 28.7 91.791 28.7C93.391 28.7 94.591 30 94.591 31.9C94.591 33.7 93.391 35.1 91.791 35.1ZM121.691 21.5H116.191V36.8H118.491V31H121.691C124.291 31 126.691 29.2 126.691 26.2C126.691 23.3 124.291 21.5 121.691 21.5ZM121.791 28.8H118.491V23.5H121.791C123.491 23.5 124.491 25 124.491 26.1C124.391 27.5 123.391 28.8 121.791 28.8ZM135.891 26.6C134.191 26.6 132.491 27.3 131.891 28.9L133.991 29.8C134.491 28.9 135.191 28.7 136.091 28.7C137.291 28.7 138.391 29.4 138.491 30.7V30.8C138.091 30.6 137.191 30.2 136.191 30.2C133.991 30.2 131.791 31.4 131.791 33.6C131.791 35.7 133.591 37 135.591 37C137.191 37 137.891 36.3 138.491 35.5H138.591V36.7H140.791V30.8C140.491 28.2 138.491 26.6 135.891 26.6ZM135.591 35.1C134.891 35.1 133.791 34.7 133.791 33.8C133.791 32.6 135.091 32.2 136.191 32.2C137.191 32.2 137.691 32.4 138.291 32.7C138.091 34.1 136.891 35.1 135.591 35.1ZM148.491 27L145.891 33.6H145.791L143.091 27H140.691L144.691 36.3L142.391 41.4H144.691L150.891 27H148.491ZM127.891 36.8H130.191V21.5H127.891V36.8Z" fill="white"/>
<path d="M48.6 17.6H47.7V15.2H48.4C49 14.7 49.4 13.7 49.4 12.4V8.7H54.3V15.2H55.2V17.6H54.3V16H48.7V17.6H48.6ZM50.3 12.3C50.3 13.4 50.1 14.4 49.6 15.1H53.3V9.6H50.2V12.3H50.3ZM62.4 15C61.7 15.7 60.8 16.1 59.7 16.1C58.6 16.1 57.7 15.7 57 15C56.3 14.3 55.9 13.4 55.9 12.3C55.9 11.2 56.3 10.3 57 9.6C57.7 8.9 58.6 8.5 59.7 8.5C60.8 8.5 61.7 8.9 62.4 9.6C63.1 10.3 63.5 11.2 63.5 12.3C63.5 13.4 63.1 14.3 62.4 15ZM57.7 14.4C58.2 14.9 58.9 15.3 59.7 15.3C60.4 15.3 61.2 15.1 61.7 14.4C62.2 13.9 62.6 13.2 62.6 12.3C62.6 11.4 62.4 10.7 61.7 10.2C61.2 9.7 60.5 9.3 59.7 9.3C59 9.3 58.2 9.5 57.7 10.2C57.2 10.8 56.8 11.5 56.8 12.3C56.9 13.2 57.1 13.9 57.7 14.4ZM68.3 16.1C67.2 16.1 66.3 15.7 65.6 15C64.9 14.3 64.5 13.4 64.5 12.3C64.5 11.2 64.9 10.3 65.6 9.6C66.3 8.9 67.2 8.5 68.3 8.5C69.4 8.5 70.3 8.9 71 9.7L70.4 10.3C69.9 9.7 69.2 9.3 68.3 9.3C67.4 9.3 66.8 9.5 66.2 10.2C65.6 10.7 65.3 11.4 65.3 12.3C65.3 13.2 65.5 13.9 66.2 14.4C66.7 14.9 67.4 15.3 68.3 15.3C69.2 15.3 69.9 14.9 70.5 14.2L71.1 14.8C70.7 15.2 70.4 15.5 69.9 15.8C69.4 16 68.9 16.1 68.3 16.1ZM75 16H74V9.5H72V8.7H77V9.6H74.9V16H75ZM83.5 8.7L80.7 14.9C80.3 15.8 79.7 16.2 79 16.2C78.8 16.2 78.5 16.2 78.3 16.1L78.5 15.2C78.6 15.3 78.9 15.3 79 15.3C79.2 15.3 79.4 15.3 79.5 15.2C79.6 15.1 79.7 15 79.9 14.7L80.1 14.1L77.7 8.7H78.8L80.6 12.9L82.3 8.7H83.5ZM84.6 16V8.7H89.9V16H88.9V9.5H85.5V16H84.6ZM91.5 16V8.7H92.5V11.9H96.2V8.7H97.2V16H96.2V12.7H92.5V16H91.5ZM104.9 15C104.2 15.7 103.3 16.1 102.2 16.1C101.1 16.1 100.2 15.7 99.5 15C98.8 14.3 98.4 13.4 98.4 12.3C98.4 11.2 98.8 10.3 99.5 9.6C100.2 8.9 101.1 8.5 102.2 8.5C103.3 8.5 104.2 8.9 104.9 9.6C105.6 10.3 106 11.2 106 12.3C105.9 13.4 105.5 14.3 104.9 15ZM100.1 14.4C100.6 14.9 101.3 15.3 102.1 15.3C102.8 15.3 103.6 15.1 104.1 14.4C104.6 13.9 105 13.2 105 12.3C105 11.4 104.8 10.7 104.1 10.2C103.6 9.7 102.9 9.3 102.1 9.3C101.4 9.3 100.6 9.5 100.1 10.2C99 11.4 99 13.3 100.1 14.4ZM109.8 16V8.7H112.5C113.1 8.7 113.6 8.9 114 9.3C114.4 9.7 114.6 10.2 114.6 10.8C114.6 11.2 114.5 11.4 114.4 11.8C114.2 12.1 114 12.3 113.7 12.4C114.1 12.5 114.3 12.8 114.6 13C114.8 13.2 115 13.6 115 14.1C115 14.7 114.8 15.2 114.4 15.6C113.9 16 113.4 16.2 112.8 16.2H110C109.8 16.1 109.8 16 109.8 16ZM110.8 11.8H112.5C112.9 11.8 113.1 11.7 113.4 11.4C113.6 11.2 113.8 10.9 113.8 10.7C113.8 10.5 113.7 10.2 113.4 10C113.2 9.8 112.9 9.6 112.5 9.6H110.8V11.8ZM110.8 15.1H112.8C113.2 15.1 113.4 15 113.7 14.7C113.9 14.5 114.1 14.2 114.1 13.8C114.1 13.6 114 13.2 113.7 12.9C113.4 12.6 113.2 12.5 112.8 12.5H111V14.9H110.8V15.1Z" fill="white" stroke="white" stroke-width="0.5"/>
</g>
<defs>
<linearGradient id="paint0_linear" x1="25.6821" y1="9.69809" x2="1.35613" y2="16.2886" gradientUnits="userSpaceOnUse">
<stop stop-color="#00A0FF"/>
<stop offset="0.00657" stop-color="#00A1FF"/>
<stop offset="0.2601" stop-color="#00BEFF"/>
<stop offset="0.5122" stop-color="#00D2FF"/>
<stop offset="0.7604" stop-color="#00DFFF"/>
<stop offset="1" stop-color="#00E3FF"/>
</linearGradient>
<linearGradient id="paint1_linear" x1="40.4384" y1="23.6171" x2="10.8082" y2="23.6171" gradientUnits="userSpaceOnUse">
<stop stop-color="#FFE000"/>
<stop offset="0.4087" stop-color="#FFBD00"/>
<stop offset="0.7754" stop-color="#FFA500"/>
<stop offset="1" stop-color="#FF9C00"/>
</linearGradient>
<linearGradient id="paint2_linear" x1="29.3872" y1="26.3532" x2="9.89333" y2="59.1482" gradientUnits="userSpaceOnUse">
<stop stop-color="#FF3A44"/>
<stop offset="1" stop-color="#C31162"/>
</linearGradient>
<linearGradient id="paint3_linear" x1="7.88195" y1="-0.644036" x2="16.5186" y2="14.0216" gradientUnits="userSpaceOnUse">
<stop stop-color="#32A071"/>
<stop offset="0.0685" stop-color="#2DA771"/>
<stop offset="0.4762" stop-color="#15CF74"/>
<stop offset="0.8009" stop-color="#06E775"/>
<stop offset="1" stop-color="#00F076"/>
</linearGradient>
<clipPath id="clip0">
<rect width="164" height="48" fill="white"/>
</clipPath>
</defs>
</svg>
