<svg width="156" height="30" viewBox="0 0 156 30" fill="none" xmlns="http://www.w3.org/2000/svg">
<path fill-rule="evenodd" clip-rule="evenodd" d="M0 15.0027C0 6.72405 6.58084 0.0106477 14.6972 0V5.4197C9.51611 5.43035 5.3169 9.71606 5.3169 14.9973C5.3169 20.2893 9.52655 24.575 14.7129 24.575C19.8731 24.575 24.1141 20.3265 24.1141 14.9601L29.431 14.9654C29.431 23.2813 22.8397 30 14.7129 30C6.59129 30 0 23.2866 0 15.0027Z" fill="#2A644A"/>
<path d="M8.22607 15.0027C8.22607 11.3292 11.1509 8.34784 14.7547 8.34784C18.3585 8.34784 21.2833 11.3292 21.2833 15.0027C21.2833 18.6761 18.3585 21.6575 14.7547 21.6575C11.1457 21.6575 8.22607 18.6761 8.22607 15.0027Z" fill="#52AE30"/>
<path d="M19.2777 6.57495C19.2777 4.4667 20.9543 2.76306 23.0173 2.76306C25.0856 2.76306 26.7569 4.47202 26.7569 6.57495C26.7569 8.67788 25.0803 10.3868 23.0173 10.3868C20.9543 10.3868 19.2777 8.67788 19.2777 6.57495Z" fill="#52AE30"/>
<path d="M138.417 10.0994L137.957 12.4313C136.861 17.5102 136.453 19.15 135.503 24.2023L135.294 24.3833L132.264 24.4738L132.118 24.2609L133.335 19.0595L133.69 17.3558C132.39 17.3292 131.095 17.3026 129.794 17.3026C128.781 17.3026 128.003 17.3186 127.214 17.3399C126.77 19.3842 126.399 21.1837 125.83 24.2077L125.621 24.3887L122.597 24.4792L122.451 24.2662L123.668 19.0648L124.143 16.7968C124.942 13.2298 125.093 12.4419 125.569 9.14643L125.778 8.93348C127.172 8.75247 127.496 8.6939 128.922 8.39044L129.068 8.6034L128.749 10.1047L128.29 12.4366L127.809 14.6513C128.901 14.6726 129.993 14.6939 131.084 14.6939C132.244 14.6939 133.001 14.6726 134.291 14.646C134.704 12.7134 134.876 11.6593 135.242 9.14643L135.45 8.93348C136.845 8.75247 137.174 8.6939 138.595 8.39044L138.741 8.6034L138.417 10.0994Z" fill="#52AE30"/>
<path d="M100.807 16.8926C101.016 16.0088 101.162 15.1304 101.162 14.2786C101.162 11.212 99.2245 10.6956 98.1225 10.6956C93.4428 10.6956 92.8474 18.1118 92.8474 19.2351C92.8474 21.6681 94.2784 22.7329 95.8871 22.7329C99.0783 22.7276 100.269 19.3842 100.807 16.8926ZM103.909 17.8349C103.251 20.4489 101.434 24.9742 95.8296 24.9742C91.8654 24.9742 89.6875 22.8766 89.6875 18.7453C89.6875 18.2129 89.7293 17.6167 89.8181 16.9938C89.8337 16.8394 89.8546 16.685 89.8807 16.5306C90.9567 9.68409 93.8658 3.18897 100.259 3.12508C101.115 3.11443 102.839 3.02393 104.014 2.74176L103.58 5.47823C102.4 5.78701 100.525 5.94673 99.4334 5.95738C98.0755 5.97335 97.1354 6.49509 96.4877 7.13395C96.1639 7.44806 95.9184 7.78879 95.72 8.10822C95.5267 8.417 95.3857 8.70449 95.2812 8.92277C96.1326 8.65126 97.0675 8.48089 98.1225 8.48089C102.029 8.48089 104.353 10.7009 104.353 14.6193C104.353 15.6788 104.176 16.7702 103.909 17.8349Z" fill="#52AE30"/>
<path fill-rule="evenodd" clip-rule="evenodd" d="M116.329 20.4916C116 20.7631 115.677 21.0666 115.348 21.2795C114.575 21.764 113.567 21.9769 112.767 21.9769C110.067 21.9769 109.294 19.6504 109.294 18.197C109.294 18.0426 109.352 14.1455 112.47 11.9681C114.219 10.7595 116.147 10.701 117.129 10.701C117.573 10.701 118.022 10.7329 118.466 10.7329L116.329 20.4916ZM121.996 8.6992L121.85 8.45431L117.755 8.42236C115.029 8.42236 111.201 8.60338 108.438 11.8989C107.189 13.4108 106.067 16.0142 106.067 18.3993C106.067 22.1792 108.526 24.3567 111.556 24.3567C114.078 24.3567 115.384 23.2387 115.886 22.8128L115.677 24.0213L115.823 24.2343L118.612 24.1757L118.821 23.9627C119.416 20.3638 119.62 19.2138 120.659 14.5555L121.996 8.6992Z" fill="#52AE30"/>
<path fill-rule="evenodd" clip-rule="evenodd" d="M48.1028 16.2058C47.544 18.8838 46.8911 19.6664 46.5673 20.0869C46.0659 20.7205 45.2981 21.2582 44.4155 21.2582C43.444 21.2582 42.6449 20.779 42.3211 19.8154C42.2323 19.6078 42.1435 19.2138 42.1435 18.4951C42.1435 17.1109 42.765 13.6823 43.8827 12.2076C44.2066 11.819 44.9169 10.9725 46.3009 10.9725C48.0402 10.9725 48.3953 12.5377 48.3953 13.6504C48.3953 14.5821 48.2491 15.4552 48.1028 16.2058ZM52.9392 17.3505C53.1743 16.3602 53.3205 15.3327 53.3205 14.3425C53.3205 12.5377 52.9653 10.8554 51.4611 9.47116C50.0719 8.2094 48.1864 7.78882 46.327 7.78882C38.6546 7.78882 37.2079 15.0399 37.2079 17.803C37.2079 20.0603 37.8294 21.7107 39.1247 22.8554C40.5401 24.1171 42.6084 24.4206 44.1439 24.4206C46.3845 24.4206 48.3065 23.9414 49.9883 22.5253C51.5552 21.2316 52.4692 19.331 52.9392 17.3505Z" fill="#2A644A"/>
<path d="M64.9884 11.9255H64.6489C64.3721 13.1234 64.0587 14.5129 63.573 16.7276L63.0977 18.969C62.565 21.5457 62.4762 22.1793 62.1472 24.2715L61.9382 24.4206L56.7989 24.5431L56.6527 24.3301C57.5458 20.7844 57.7234 20.0923 58.5851 16.2112L58.9142 14.7258C59.1805 13.5013 59.3477 12.7028 59.4835 11.9521H59.3216L57.7234 11.9787L54.2762 12.1012L54.13 11.8563L55.1119 8.31057L55.3522 8.15618H65.4219L70.5299 8.06567L70.7075 8.24669L69.7569 11.819L69.5167 12.032L66.6075 11.9095H64.9884V11.9255Z" fill="#2A644A"/>
<path d="M82.5061 11.8829L76.8862 11.9308C76.8862 11.9308 76.1864 14.2201 75.5753 16.7702C74.9642 19.3203 74.2696 22.1526 73.857 24.2449L73.6428 24.394L68.8325 24.5164L68.6915 24.3035C69.7204 20.7578 69.9241 20.0657 70.9374 16.1846L71.3239 14.6992C71.6477 13.4215 71.82 12.6069 72.0185 11.8296L72.8594 8.28395L73.0892 8.13488H82.8142L87.9222 8.04437L88.1102 8.22538C88.1102 8.22538 87.1231 13.15 86.5068 16.4987C85.8905 19.8474 85.1802 24.2396 85.1802 24.2396L84.9765 24.3887L79.9625 24.4951L79.8058 24.2822C80.5997 20.7578 81.169 18.1757 81.5973 16.1633C82.0308 14.1615 82.3233 12.7454 82.5061 11.8829Z" fill="#2A644A"/>
<path d="M144.434 15.0293C145.139 14.4011 145.557 14.0071 146.528 13.0435C147.568 12.016 150.09 9.35406 150.566 8.83765L150.889 8.65664H154.3L154.389 8.92815C154.091 9.19967 153.945 9.32212 152.759 10.3496C152.284 10.7436 151.986 11.0471 151.422 11.5581L147.568 15.189L152.164 24.1118L151.986 24.3567L148.696 24.4472L148.455 24.2662C147.682 22.3922 147.474 21.9663 146.408 19.7622L144.329 15.4659C143.677 18.4419 143.274 20.3159 142.543 24.2077L142.334 24.3887L139.31 24.4792L139.164 24.2662L140.381 19.0648L140.856 16.7968C141.655 13.2298 141.807 12.4419 142.282 9.14643L142.491 8.93348C143.885 8.75247 144.209 8.6939 145.635 8.39044L145.781 8.6034L145.463 10.1047L145.003 12.4366L144.434 15.0293Z" fill="#52AE30"/>
</svg>
