<svg width="28" height="28" viewBox="0 0 28 28" fill="none" xmlns="http://www.w3.org/2000/svg">
<path d="M14.0131 11.6032C15.3499 11.5983 16.4146 10.5244 16.4098 9.18471C16.4049 7.84444 15.3379 6.778 14.0005 6.77686C12.6519 6.77542 11.5749 7.86162 11.5852 9.21393C11.5952 10.5488 12.672 11.608 14.0131 11.6032Z" fill="#8E939F"/>
<path d="M14 0C6.26799 0 0 6.26828 0 14C0 21.7317 6.26799 28 14 28C21.732 28 28 21.7317 28 14C28 6.26828 21.732 0 14 0ZM14.0201 4.25743C16.747 4.26488 18.9357 6.49543 18.9217 9.25246C18.9079 11.9459 16.6834 14.1289 13.961 14.1197C11.2665 14.1106 9.05653 11.8766 9.07257 9.1777C9.08776 6.44931 11.2988 4.24998 14.0201 4.25743ZM19.5433 16.0572C18.9403 16.6763 18.2145 17.1243 17.4084 17.4368C16.6465 17.7321 15.8115 17.8808 14.9848 17.9799C15.11 18.1156 15.1687 18.1824 15.2466 18.2603C16.3683 19.388 17.4955 20.51 18.6135 21.6409C18.9945 22.0265 19.0738 22.5043 18.8641 22.952C18.6353 23.4418 18.1217 23.7638 17.6178 23.7291C17.2987 23.707 17.0498 23.5486 16.8289 23.3261C15.9822 22.4742 15.1194 21.6375 14.2905 20.7696C14.0484 20.5169 13.9327 20.565 13.7193 20.7845C12.8677 21.6615 12.002 22.5246 11.1315 23.3831C10.7405 23.7686 10.2754 23.8385 9.82163 23.618C9.33954 23.3848 9.03304 22.8924 9.05653 22.3971C9.07315 22.0631 9.23757 21.8071 9.46729 21.5785C10.5778 20.4702 11.685 19.3585 12.7923 18.2477C12.866 18.1741 12.9341 18.0959 13.041 17.9813C11.5306 17.8235 10.1685 17.4517 9.00239 16.5399C8.85745 16.4265 8.70821 16.3171 8.57645 16.1899C8.06572 15.6998 8.01445 15.138 8.41805 14.56C8.76379 14.065 9.34355 13.9327 9.94652 14.2171C10.0634 14.2718 10.1745 14.3412 10.2811 14.4145C12.4541 15.9077 15.4394 15.9487 17.621 14.4812C17.8369 14.3162 18.0681 14.1805 18.3359 14.112C18.8561 13.9779 19.3419 14.1696 19.6209 14.625C19.9403 15.1455 19.9366 15.6531 19.5433 16.0572Z" fill="#8E939F"/>
</svg>
