<svg width="28" height="28" viewBox="0 0 28 28" fill="none" xmlns="http://www.w3.org/2000/svg">
<path d="M14 0C6.26828 0 0 6.26799 0 14C0 21.732 6.26828 28 14 28C21.7317 28 28 21.732 28 14C28 6.26799 21.7317 0 14 0ZM21.1015 15.5141C21.7541 16.1515 22.4444 16.7513 23.0302 17.4545C23.2897 17.7656 23.5343 18.0873 23.7205 18.4491C23.9863 18.965 23.7463 19.5307 23.2845 19.5613L20.4164 19.5608C19.6756 19.6221 19.0861 19.3233 18.5891 18.8169C18.1924 18.4133 17.8243 17.9822 17.4422 17.5648C17.2861 17.3935 17.1217 17.2322 16.9258 17.1054C16.5348 16.851 16.195 16.9289 15.971 17.3374C15.7427 17.753 15.6906 18.2136 15.6688 18.6762C15.6376 19.3525 15.4337 19.5292 14.7551 19.561C13.3051 19.6289 11.9293 19.4089 10.6506 18.6779C9.52258 18.0331 8.64949 17.1231 7.8887 16.0928C6.4072 14.0842 5.27259 11.8797 4.25314 9.61195C4.02369 9.10122 4.19155 8.82795 4.75499 8.81735C5.69109 8.7993 6.62719 8.8016 7.56329 8.81649C7.94427 8.82251 8.19634 9.04049 8.34271 9.39998C8.84857 10.6446 9.46873 11.8287 10.2459 12.927C10.453 13.2194 10.6643 13.511 10.9654 13.7176C11.2977 13.9456 11.5509 13.8702 11.7076 13.4993C11.8078 13.2635 11.8511 13.0115 11.8729 12.7588C11.9473 11.8935 11.9562 11.0284 11.8273 10.1665C11.7471 9.62713 11.4438 9.27881 10.9061 9.17684C10.6323 9.12499 10.6724 9.02359 10.8056 8.86719C11.0367 8.59679 11.2533 8.4295 11.6861 8.4295L14.9267 8.42893C15.4374 8.52919 15.552 8.75834 15.6213 9.2728L15.6241 12.874C15.6181 13.0731 15.7241 13.6631 16.0816 13.7935C16.368 13.888 16.5571 13.6583 16.7284 13.477C17.5055 12.6523 18.0592 11.6789 18.555 10.6715C18.7739 10.2272 18.9627 9.76749 19.146 9.30689C19.2823 8.9663 19.4943 8.79873 19.8787 8.80446L22.9992 8.80818C23.0912 8.80818 23.1846 8.80904 23.2757 8.8248C23.8016 8.91474 23.9457 9.14103 23.783 9.65406C23.5269 10.4601 23.0293 11.1315 22.5429 11.8047C22.0216 12.5254 21.4656 13.2209 20.9494 13.9447C20.4751 14.6064 20.5126 14.9395 21.1015 15.5141Z" fill="#8E939F"/>
</svg>
